<?xml version="1.0" encoding="utf-8"?>
<!-- Generator: Adobe Illustrator 18.1.1, SVG Export Plug-In . SVG Version: 6.00 Build 0)  -->
<!DOCTYPE svg PUBLIC "-//W3C//DTD SVG 1.1//EN" "http://www.w3.org/Graphics/SVG/1.1/DTD/svg11.dtd">
<svg version="1.1" id="Layer_1" xmlns="http://www.w3.org/2000/svg" xmlns:xlink="http://www.w3.org/1999/xlink" x="0px" y="0px"
	 viewBox="-6.1 115.5 324 200.1" enable-background="new -6.1 115.5 324 200.1" xml:space="preserve">
<g opacity="3.000000e-02">
	<path fill="none" stroke="#000000" stroke-miterlimit="10" d="M91,219.9c-0.3-1.6-1.8-2.6-3.3-2.3c-1.6,0.3-2.6,1.7-2.3,3.3
		c0.4,2.1,2,4.5,3.7,4.2C90.7,224.9,91.4,222,91,219.9z"/>
	<path fill="none" stroke="#000000" stroke-miterlimit="10" d="M87.3,226.4c-0.1,0.2-0.3,0.3-0.5,0.4l-1.5,0.6
		c-0.7,0.3-1.2,1-1.1,1.8v1.7c0,0,1.5,0.6,5.8-0.2s5.5-1.9,5.5-1.9l-0.6-1.6c-0.3-0.7-0.9-1.2-1.7-1.3l-1.6-0.1
		c-0.2,0-0.4-0.1-0.6-0.2"/>
	<path fill="none" stroke="#000000" stroke-miterlimit="10" d="M96.9,220.1c-0.2-1.2-1.3-2-2.5-1.8c-1.2,0.2-1.9,1.4-1.7,2.5
		c0.2,1.4,1.3,2.9,2.7,2.6C96.6,223.3,97.1,221.5,96.9,220.1z"/>
	<path fill="none" stroke="#000000" stroke-miterlimit="10" d="M97.1,224.2c0.2,0.1,0.4,0.2,0.6,0.3l0.8,0.2c0.5,0.1,0.9,0.4,1,0.9
		l0.4,0.9c0,0-0.8,0.8-2.7,1.2"/>
</g>
<g opacity="3.000000e-02">
	<polyline fill="none" stroke="#000000" stroke-linecap="round" stroke-linejoin="round" stroke-miterlimit="10" points="
		230.4,174.8 230.4,178 227.5,178 	"/>
	<path fill="none" stroke="#000000" stroke-linecap="round" stroke-linejoin="round" stroke-miterlimit="10" d="M230.4,178
		c-0.7-0.7-2-3.3-4.9-3.3c-2.7,0-4.9,2.2-4.9,4.9v0.3"/>
	<polyline fill="none" stroke="#000000" stroke-linecap="round" stroke-linejoin="round" stroke-miterlimit="10" points="
		220.7,184.5 220.7,181.3 223.6,181.3 	"/>
	<path fill="none" stroke="#000000" stroke-linecap="round" stroke-linejoin="round" stroke-miterlimit="10" d="M220.7,181.3
		c0.7,0.7,2,3.3,4.9,3.3c2.7,0,4.9-2.2,4.9-4.9v-0.3"/>
</g>
<path opacity="3.000000e-02" fill="none" stroke="#000000" stroke-linecap="round" stroke-linejoin="round" stroke-miterlimit="10" enable-background="new    " d="
	M177.1,219.6c0.1-0.3-0.1-0.5-0.4-0.6l-1.2-0.3c-0.1,0-0.2-0.1-0.3-0.2l-0.5-0.8c-0.1-0.1-0.2-0.2-0.3-0.2l-1-0.2
	c-0.1,0-0.2,0-0.4,0.1l-0.8,0.5c-0.1,0.1-0.2,0.1-0.4,0.1l-1.2-0.3c-0.3-0.1-0.5,0.1-0.6,0.4l-0.9,4.1c-0.1,0.3,0.1,0.5,0.4,0.6
	l5.9,1.4c0.3,0.1,0.5-0.1,0.6-0.4L177.1,219.6z"/>
<circle opacity="3.000000e-02" fill="none" stroke="#000000" stroke-linecap="round" stroke-linejoin="round" stroke-miterlimit="10" enable-background="new    " cx="173.3" cy="220.9" r="1.6"/>
<circle opacity="3.000000e-02" fill="#D9381E" stroke="#000000" stroke-miterlimit="10" enable-background="new    " cx="175.7" cy="219.8" r="0.2"/>
<path opacity="3.000000e-02" fill="none" stroke="#000000" stroke-linecap="round" stroke-linejoin="round" stroke-miterlimit="10" enable-background="new    " d="
	M271.6,198.8c2.2,1,4.7,1.6,7.3,1.6l0,0c8.6,0,15.7-6.1,15.7-13.6c0-7.5-7-13.6-15.7-13.6s-15.7,6.1-15.7,13.6c0,1.5,0.3,3,0.8,4.3
	c0.5,1.3,1.3,2.5,2.2,3.7c1.9,2.4,1.6,7-0.9,9.7c2.5,0.2,5-0.6,6.9-2.1"/>
<g opacity="3.000000e-02">
	<circle fill="none" stroke="#000000" stroke-miterlimit="10" cx="145.1" cy="156.6" r="8.8"/>
	
		<line fill="none" stroke="#000000" stroke-linecap="round" stroke-linejoin="round" stroke-miterlimit="10" x1="158.3" y1="169.8" x2="153.1" y2="164.7"/>
</g>
<g opacity="3.000000e-02">
	
		<circle fill="none" stroke="#000000" stroke-linecap="round" stroke-linejoin="round" stroke-miterlimit="10" cx="190.8" cy="190" r="10.7"/>
	<path fill="none" stroke="#000000" stroke-linecap="round" stroke-linejoin="round" stroke-miterlimit="10" d="M186.9,199.9
		c0.6-1.9,0-4-1.6-5.2l-0.5-0.4"/>
	<path fill="none" stroke="#000000" stroke-linecap="round" stroke-linejoin="round" stroke-miterlimit="10" d="M196.2,180.8
		c-0.6,1.3-1.9,2.3-3.4,2.5l-1.4,0.2c-0.8,0.1-1.3,0.8-1.3,1.5c0,0.5,0.2,0.9,0.6,1.1c0.4,0.2,0.9,0.3,1.3,0l2.1-1
		c0.5-0.2,1.1-0.2,1.5,0.2c0.2,0.2,0.4,0.3,0.6,0.5c0.7,0.6,1.7,0.7,2.5,0.4l1.7-0.8"/>
	<path fill="none" stroke="#000000" stroke-linecap="round" stroke-linejoin="round" stroke-miterlimit="10" d="M184.1,189.3
		l0.6-0.6c1-0.9,1.2-2.4,0.6-3.6c-0.5-1-1.1-2.1-1.6-3.1"/>
	<path fill="none" stroke="#000000" stroke-linecap="round" stroke-linejoin="round" stroke-miterlimit="10" d="M184.1,189.3
		l-0.3,0.3c-0.5,0.5-0.8,1.3-0.8,2c0,0.8,0.4,1.5,1,2l0.9,0.7"/>
	<path fill="none" stroke="#000000" stroke-linecap="round" stroke-linejoin="round" stroke-miterlimit="10" d="M192.9,189.3
		c2.4,0,2.8,1.5,2.8,2.1c0,1.5-1.4,1.9-2,2.8c-1,1.4-0.8,3.6-0.8,3.6s-2.8-1.9-2.8-5C190,189.8,191.8,189.3,192.9,189.3z"/>
</g>
<path opacity="3.000000e-02" fill="none" stroke="#000000" stroke-linecap="round" stroke-linejoin="round" stroke-miterlimit="10" enable-background="new    " d="
	M121.5,217.8l-2,2l-0.5,0.5c-0.8,0.8-0.8,2.2,0,3c0.8,0.8,2.2,0.8,3,0l3-3c0.5-0.5,0.5-1.4,0-2c-0.5-0.5-1.4-0.5-2,0l-3,3
	c-0.3,0.3-0.3,0.7,0,1c0.3,0.3,0.7,0.3,1,0l2.1-2.1"/>
<g opacity="3.000000e-02">
	<circle fill="none" stroke="#000000" stroke-miterlimit="10" cx="129.1" cy="248.5" r="3.7"/>
	<path fill="none" stroke="#000000" stroke-linecap="round" stroke-linejoin="round" stroke-miterlimit="10" d="M139.7,250.1
		c0.4-0.1,0.6-0.4,0.6-0.7v-1.8c0-0.4-0.3-0.7-0.6-0.7l-2.2-0.5c-0.3,0-0.5-0.2-0.6-0.5c-0.1-0.4-0.3-0.8-0.5-1.1
		c-0.1-0.2-0.1-0.5,0-0.8l1.3-1.9c0.2-0.3,0.2-0.7-0.1-0.9l-1.2-1.2c-0.3-0.3-0.6-0.3-0.9-0.1l-1.9,1.3c-0.2,0.1-0.5,0.2-0.8,0
		c-0.4-0.2-0.8-0.3-1.1-0.5c-0.3-0.1-0.5-0.3-0.5-0.6l-0.5-2.2c-0.1-0.4-0.4-0.6-0.7-0.6h-1.8c-0.4,0-0.7,0.3-0.7,0.6l-0.5,2.2
		c0,0.3-0.2,0.5-0.5,0.6c-0.4,0.1-0.8,0.3-1.1,0.5c-0.2,0.1-0.5,0.1-0.8,0l-1.9-1.3c-0.3-0.2-0.7-0.2-0.9,0.1l-1.2,1.2
		c-0.3,0.3-0.3,0.6-0.1,0.9l1,1.5c0.3,0.4,0.3,1,0.1,1.4c-0.1,0.3-0.2,0.5-0.3,0.8c-0.1,0.3-0.3,0.5-0.6,0.5l-2.2,0.5
		c-0.4,0.1-0.6,0.4-0.6,0.7v1.8c0,0.4,0.3,0.7,0.6,0.7l2.2,0.5c0.3,0,0.5,0.2,0.6,0.5c0.1,0.4,0.3,0.8,0.5,1.1
		c0.1,0.2,0.1,0.5,0,0.8l-1.3,1.9c-0.2,0.3-0.2,0.7,0.1,0.9l1.2,1.2c0.3,0.3,0.6,0.3,0.9,0.1l1.9-1.3c0.2-0.1,0.5-0.2,0.8,0
		c0.4,0.2,0.8,0.3,1.1,0.5c0.3,0.1,0.5,0.3,0.5,0.6l0.5,2.2c0.1,0.4,0.4,0.6,0.7,0.6h1.8c0.4,0,0.7-0.3,0.7-0.6l0.5-2.2
		c0-0.3,0.2-0.5,0.5-0.6c0.4-0.1,0.8-0.3,1.1-0.5c0.2-0.1,0.5-0.1,0.8,0l1.9,1.3c0.3,0.2,0.7,0.2,0.9-0.1l1.2-1.2
		c0.3-0.3,0.3-0.6,0.1-0.9l-1.3-1.9c-0.1-0.2-0.2-0.5,0-0.8c0.2-0.4,0.3-0.8,0.5-1.1c0.1-0.3,0.3-0.5,0.6-0.5L139.7,250.1z"/>
</g>
<polygon opacity="3.000000e-02" fill="none" stroke="#000000" stroke-linecap="round" stroke-linejoin="round" stroke-miterlimit="10" enable-background="new    " points="
	215.4,277.6 216.9,289 228.2,291 217.9,296 219.3,307.3 211.5,299 201.2,303.9 206.6,293.9 198.7,285.6 210,287.7 "/>
<g opacity="3.000000e-02">
	<path fill="none" stroke="#000000" stroke-miterlimit="10" d="M6.9,172"/>
	<g>
		<path fill="none" stroke="#000000" stroke-linecap="round" stroke-linejoin="round" stroke-miterlimit="10" d="M18.8,169.8
			c-0.8-0.4-1.8-0.7-2.8-0.7c-1,0-1.9,0.2-2.8,0.7"/>
		<path fill="none" stroke="#000000" stroke-linecap="round" stroke-linejoin="round" stroke-miterlimit="10" d="M21.3,177.9
			c0.4-0.8,0.7-1.8,0.7-2.8c0-1-0.2-1.9-0.7-2.8"/>
		<path fill="none" stroke="#000000" stroke-linecap="round" stroke-linejoin="round" stroke-miterlimit="10" d="M10.7,172.3
			c-0.4,0.8-0.7,1.8-0.7,2.8s0.2,1.9,0.7,2.8"/>
		<path fill="none" stroke="#000000" stroke-linecap="round" stroke-linejoin="round" stroke-miterlimit="10" d="M13.2,180.4
			c0.8,0.4,1.8,0.7,2.8,0.7s1.9-0.2,2.8-0.7"/>
	</g>
	<g>
		<path fill="none" stroke="#000000" stroke-linecap="round" stroke-linejoin="round" stroke-miterlimit="10" d="M14.6,171.8l-1.4-2
			c-0.1-0.2-0.3-0.3-0.5-0.3s-0.4,0-0.6,0.1c-0.3,0.2-0.6,0.5-0.9,0.7c-0.3,0.3-0.5,0.6-0.7,0.9c-0.1,0.2-0.2,0.4-0.1,0.6
			c0,0.2,0.2,0.4,0.3,0.5l2,1.4"/>
		<path fill="none" stroke="#000000" stroke-linecap="round" stroke-linejoin="round" stroke-miterlimit="10" d="M19.3,173.7l2-1.4
			c0.2-0.1,0.3-0.3,0.3-0.5c0-0.2,0-0.4-0.1-0.6c-0.2-0.3-0.5-0.6-0.7-0.9c-0.3-0.3-0.6-0.5-0.9-0.7c-0.2-0.1-0.4-0.2-0.6-0.1
			c-0.2,0-0.4,0.2-0.5,0.3l-1.4,2"/>
		<path fill="none" stroke="#000000" stroke-linecap="round" stroke-linejoin="round" stroke-miterlimit="10" d="M17.4,178.4l1.4,2
			c0.1,0.2,0.3,0.3,0.5,0.3c0.2,0,0.4,0,0.6-0.1c0.3-0.2,0.6-0.5,0.9-0.7c0.3-0.3,0.5-0.6,0.7-0.9c0.1-0.2,0.2-0.4,0.1-0.6
			c0-0.2-0.2-0.4-0.3-0.5l-2-1.4"/>
		<path fill="none" stroke="#000000" stroke-linecap="round" stroke-linejoin="round" stroke-miterlimit="10" d="M12.7,176.5l-2,1.4
			c-0.2,0.1-0.3,0.3-0.3,0.5c0,0.2,0,0.4,0.1,0.6c0.2,0.3,0.5,0.6,0.7,0.9c0.3,0.3,0.6,0.5,0.9,0.7c0.2,0.1,0.4,0.2,0.6,0.1
			c0.2,0,0.4-0.2,0.5-0.3l1.4-2"/>
	</g>
	
		<circle fill="none" stroke="#000000" stroke-linecap="round" stroke-linejoin="round" stroke-miterlimit="10" cx="16" cy="175.1" r="3.6"/>
</g>
<g opacity="3.000000e-02">
	<path fill="none" stroke="#000000" stroke-linecap="round" stroke-linejoin="round" stroke-miterlimit="10" d="M122.7,279.9
		c-0.5-1.6-2.2-2.6-3.8-2.2l-16.4,4.5c-1.6,0.5-2.6,2.2-2.2,3.8l3.7,13.4c0.5,1.6,2.2,2.6,3.8,2.2l16.4-4.5c1.6-0.5,2.6-2.2,2.2-3.8
		L122.7,279.9z"/>
	<polyline fill="none" stroke="#000000" stroke-linecap="round" stroke-linejoin="round" stroke-miterlimit="10" points="
		103.3,285.2 113.7,291.2 119.7,280.7 	"/>
</g>
<g opacity="3.000000e-02">
	<path fill="none" stroke="#000000" stroke-linecap="round" stroke-linejoin="round" stroke-miterlimit="10" d="M11.8,297.5l4,6.4
		c0.3,0.5,1,0.7,1.5,0.3l6.4-4c0.5-0.3,0.7-1,0.3-1.5l-4-6.4"/>
	<path fill="none" stroke="#000000" stroke-linecap="round" stroke-linejoin="round" stroke-miterlimit="10" d="M19.8,289.9l-10,6.3
		l-1.2-1.8c-0.3-0.5-0.2-1.2,0.3-1.5l8.2-5.2c0.5-0.3,1.2-0.2,1.5,0.3L19.8,289.9z"/>
	
		<line fill="none" stroke="#000000" stroke-linecap="round" stroke-linejoin="round" stroke-miterlimit="10" x1="14.6" y1="295.7" x2="18" y2="301.2"/>
	
		<line fill="none" stroke="#000000" stroke-linecap="round" stroke-linejoin="round" stroke-miterlimit="10" x1="17.3" y1="294" x2="20.8" y2="299.5"/>
	<path fill="none" stroke="#000000" stroke-linecap="round" stroke-linejoin="round" stroke-miterlimit="10" d="M11.7,291.2
		l-0.3-0.5c-0.5-0.8-0.3-1.8,0.5-2.2c0.8-0.5,1.8-0.3,2.2,0.5l0.3,0.5"/>
</g>
<g opacity="3.000000e-02">
	
		<circle fill="none" stroke="#000000" stroke-linecap="round" stroke-linejoin="round" stroke-miterlimit="10" cx="235.3" cy="221.4" r="11"/>
	<path fill="none" stroke="#000000" stroke-linecap="round" stroke-linejoin="round" stroke-miterlimit="10" d="M227,210
		c-1-0.4-2.1-0.4-3.2-0.1c-2.7,0.8-4.2,3.7-3.4,6.3c0.2,0.8,0.7,1.4,1.2,2"/>
	<path fill="none" stroke="#000000" stroke-linecap="round" stroke-linejoin="round" stroke-miterlimit="10" d="M235.8,207.3
		c0.6-0.9,1.5-1.5,2.6-1.9c2.7-0.8,5.5,0.7,6.3,3.4c0.2,0.8,0.3,1.6,0.1,2.3"/>
	<polyline fill="none" stroke="#000000" stroke-linecap="round" stroke-linejoin="round" stroke-miterlimit="10" points="
		231.5,223.5 236.4,222 234.4,215.5 	"/>
	
		<line fill="none" stroke="#000000" stroke-linecap="round" stroke-linejoin="round" stroke-miterlimit="10" x1="229.7" y1="234.7" x2="231.3" y2="231.6"/>
	
		<line fill="none" stroke="#000000" stroke-linecap="round" stroke-linejoin="round" stroke-miterlimit="10" x1="247.5" y1="229.2" x2="244.4" y2="227.6"/>
</g>
<g opacity="3.000000e-02">
	<path fill="none" stroke="#000000" stroke-linecap="round" stroke-linejoin="round" stroke-miterlimit="10" d="M153.7,291.5
		l7.1,2.7c-0.5,1.4,0.2,3,1.6,3.6c1.4,0.5,3-0.2,3.6-1.6l7.1,2.7l4.4-11.7c0.3-0.7-0.1-1.5-0.8-1.8l-16.9-6.3
		c-0.7-0.3-1.5,0.1-1.8,0.8L153.7,291.5z"/>
	<path fill="none" stroke="#000000" stroke-linecap="round" stroke-linejoin="round" stroke-miterlimit="10" d="M172.2,301.4l-1,2.6
		c-0.3,0.7-1.1,1.1-1.8,0.8l-16.9-6.3c-0.7-0.3-1.1-1.1-0.8-1.8l1-2.6"/>
	
		<line fill="none" stroke="#000000" stroke-linecap="round" stroke-linejoin="round" stroke-miterlimit="10" x1="161" y1="283.8" x2="172.7" y2="288.2"/>
	
		<line fill="none" stroke="#000000" stroke-linecap="round" stroke-linejoin="round" stroke-miterlimit="10" x1="160" y1="286.4" x2="171.7" y2="290.8"/>
	
		<line fill="none" stroke="#000000" stroke-linecap="round" stroke-linejoin="round" stroke-miterlimit="10" x1="159" y1="289" x2="170.7" y2="293.4"/>
</g>
<g opacity="3.000000e-02">
	<path fill="none" stroke="#000000" stroke-linecap="round" stroke-linejoin="round" stroke-miterlimit="10" d="M275.7,150.8
		c0.6-0.9,0.4-2.1-0.5-2.7l-17.9-12.3c-0.9-0.6-2.1-0.4-2.7,0.5l-6.7,9.7c-0.6,0.9-0.4,2.1,0.5,2.7l17.9,12.3
		c0.9,0.6,2.1,0.4,2.7-0.5L275.7,150.8z"/>
	<path fill="none" stroke="#000000" stroke-linecap="round" stroke-linejoin="round" stroke-miterlimit="10" d="M258.9,136.8
		l3.9-5.7c2.8-4,8.3-5.1,12.3-2.3c4,2.8,5.1,8.3,2.3,12.3l-3.9,5.7"/>
	<path fill="none" stroke="#000000" stroke-linecap="round" stroke-linejoin="round" stroke-miterlimit="10" d="M264.4,135.8
		l1.7-2.4c1.5-2.2,4.6-2.8,6.9-1.3c2.2,1.5,2.8,4.6,1.3,6.9l-1.7,2.4"/>
</g>
<path opacity="3.000000e-02" fill="none" stroke="#000000" stroke-linecap="round" stroke-linejoin="round" stroke-miterlimit="10" enable-background="new    " d="
	M253.5,244.4c-7,7-12.2,13.9-17.2,22.4c-2.6-2.6-5.5-4.9-8.6-6.9"/>
<g opacity="3.000000e-02">
	<path fill="none" stroke="#000000" stroke-miterlimit="10" d="M240.6,184.7"/>
	<g>
		<path fill="none" stroke="#000000" stroke-linecap="round" stroke-linejoin="round" stroke-miterlimit="10" d="M248.2,182.9
			l4.3-4.3c0.6-0.6,1.5-0.6,2.1,0s0.6,1.5,0,2l-4.4,4.4"/>
		<polyline fill="none" stroke="#000000" stroke-linecap="round" stroke-linejoin="round" stroke-miterlimit="10" points="
			247.4,183.7 246.2,187 249.4,185.8 		"/>
	</g>
	<path fill="none" stroke="#000000" stroke-linecap="round" stroke-linejoin="round" stroke-miterlimit="10" d="M247.4,183.7
		c1,0.2,1.8,1,2.1,2.1"/>
</g>
<g opacity="3.000000e-02">
	
		<line fill="none" stroke="#000000" stroke-linecap="round" stroke-linejoin="round" stroke-miterlimit="10" x1="195.4" y1="233.6" x2="192.5" y2="240.4"/>
	<path fill="none" stroke="#000000" stroke-linecap="round" stroke-linejoin="round" stroke-miterlimit="10" d="M202.6,234l1-2.3
		c0.5-1.3,0.6-2.7,0.1-4l-0.3-0.8c-0.5-1.3-0.5-2.7,0.1-4l1.2-2.8c0.3-0.7,0-1.4-0.7-1.7l-4.4-1.9c-0.7-0.3-1.4,0-1.7,0.7l-1.2,2.8
		c-0.5,1.3-1.6,2.3-2.9,2.8l-0.8,0.3c-1.3,0.5-2.3,1.5-2.9,2.8l-1,2.3L202.6,234z"/>
</g>
<g opacity="3.000000e-02">
	<path fill="none" stroke="#000000" stroke-linecap="round" stroke-linejoin="round" stroke-miterlimit="10" d="M159.9,133.4
		l1.8,0.3l0.7-3.6c0.1-0.7-0.3-1.3-1-1.4l-6.6-1.2c-0.7-0.1-1.3,0.3-1.4,1l-0.7,3.6l1.8,0.3"/>
	<polyline fill="none" stroke="#000000" stroke-linecap="round" stroke-linejoin="round" stroke-miterlimit="10" points="
		155.6,126.4 155.8,125.2 161.3,126.2 161,127.4 	"/>
	
		<rect x="154.5" y="131" transform="matrix(0.9836 0.1803 -0.1803 0.9836 26.5229 -26.1689)" fill="none" stroke="#000000" stroke-linecap="round" stroke-linejoin="round" stroke-miterlimit="10" width="5.5" height="3.7"/>
	
		<line fill="none" stroke="#000000" stroke-linecap="round" stroke-linejoin="round" stroke-miterlimit="10" x1="154.2" y1="130.5" x2="160.9" y2="131.7"/>
</g>
<g opacity="3.000000e-02">
	<path fill="none" stroke="#000000" stroke-linecap="round" stroke-linejoin="round" stroke-miterlimit="10" d="M150.6,215.4
		c-1.5,1.5-3.9,1.5-5.4,0l-14.9-14.9c-1.5-1.5-1.5-3.9,0-5.4l12.2-12.2c1.5-1.5,3.9-1.5,5.4,0l14.9,14.9c1.5,1.5,1.5,3.9,0,5.4
		L150.6,215.4z"/>
	<polyline fill="none" stroke="#000000" stroke-linecap="round" stroke-linejoin="round" stroke-miterlimit="10" points="
		132.9,197.7 143.8,197.7 143.8,203.2 	"/>
	<polyline fill="none" stroke="#000000" stroke-linecap="round" stroke-linejoin="round" stroke-miterlimit="10" points="
		138.4,203.2 151.9,203.2 151.9,208.6 	"/>
	
		<circle fill="none" stroke="#000000" stroke-linecap="round" stroke-linejoin="round" stroke-miterlimit="10" cx="145.1" cy="191" r="1.9"/>
</g>
<g opacity="3.000000e-02">
	<path fill="none" stroke="#000000" stroke-linecap="round" stroke-linejoin="round" stroke-miterlimit="10" d="M16.1,127.7
		c0.1-1,1.1-1.7,2.1-1.5l23.5,3.4c1,0.1,1.7,1.1,1.5,2.1l-0.8,5.4l-27.1-4L16.1,127.7z"/>
	<path fill="none" stroke="#000000" stroke-linecap="round" stroke-linejoin="round" stroke-miterlimit="10" d="M41.9,140.7
		l-2.1,14.4c-0.1,1-1.1,1.7-2.1,1.5l-23.5-3.4c-1-0.1-1.7-1.1-1.5-2.1l2.1-14.4"/>
	
		<line fill="none" stroke="#000000" stroke-linecap="round" stroke-linejoin="round" stroke-miterlimit="10" x1="19.9" y1="139.3" x2="19.7" y2="141.1"/>
	
		<line fill="none" stroke="#000000" stroke-linecap="round" stroke-linejoin="round" stroke-miterlimit="10" x1="30.8" y1="140.9" x2="30.5" y2="142.7"/>
	
		<line fill="none" stroke="#000000" stroke-linecap="round" stroke-linejoin="round" stroke-miterlimit="10" x1="36.2" y1="141.7" x2="35.9" y2="143.5"/>
	
		<line fill="none" stroke="#000000" stroke-linecap="round" stroke-linejoin="round" stroke-miterlimit="10" x1="18.9" y1="146.6" x2="18.6" y2="148.4"/>
	
		<line fill="none" stroke="#000000" stroke-linecap="round" stroke-linejoin="round" stroke-miterlimit="10" x1="24.3" y1="147.4" x2="24" y2="149.2"/>
	
		<line fill="none" stroke="#000000" stroke-linecap="round" stroke-linejoin="round" stroke-miterlimit="10" x1="29.7" y1="148.2" x2="29.4" y2="150"/>
	
		<line fill="none" stroke="#000000" stroke-linecap="round" stroke-linejoin="round" stroke-miterlimit="10" x1="35.1" y1="149" x2="34.8" y2="150.8"/>
	<path fill="none" stroke="#000000" stroke-linecap="round" stroke-linejoin="round" stroke-miterlimit="10" d="M26.9,142.2
		c-0.1,1-1.1,1.7-2.1,1.5c-1-0.1-1.7-1.1-1.5-2.1l0.3-1.8c0.1-1,1.1-1.7,2.1-1.5c1,0.1,1.7,1.1,1.5,2.1L26.9,142.2z"/>
</g>
<g opacity="3.000000e-02">
	
		<line fill="none" stroke="#000000" stroke-linecap="round" stroke-linejoin="round" stroke-miterlimit="10" x1="63.7" y1="149.8" x2="63.7" y2="156"/>
	
		<line fill="none" stroke="#000000" stroke-linecap="round" stroke-linejoin="round" stroke-miterlimit="10" x1="60.6" y1="152.9" x2="66.8" y2="152.9"/>
</g>
<g opacity="3.000000e-02">
	<path fill="none" stroke="#000000" stroke-linecap="round" stroke-linejoin="round" stroke-miterlimit="10" d="M280.5,269.3l22,8.6
		c0.7,0.3,1.3,0.8,1.5,1.5c0.3,0.7,0.2,1.5-0.1,2.2l-4.1,7.9c-1.2,2.2-3.7,3.3-6.1,2.6l-16.3-4.6c-2.4-0.7-4-2.9-3.8-5.4l1.2-17.9
		c0.1-1.2-0.7-2.4-1.9-2.7l-3.6-1"/>
	
		<circle fill="none" stroke="#000000" stroke-linecap="round" stroke-linejoin="round" stroke-miterlimit="10" cx="275.9" cy="295.4" r="2.6"/>
	
		<circle fill="none" stroke="#000000" stroke-linecap="round" stroke-linejoin="round" stroke-miterlimit="10" cx="291.3" cy="299.7" r="2.6"/>
</g>
<g opacity="3.000000e-02">
	
		<line fill="none" stroke="#000000" stroke-linecap="round" stroke-linejoin="round" stroke-miterlimit="10" x1="207.7" y1="139.8" x2="207.7" y2="151.7"/>
	
		<line fill="none" stroke="#000000" stroke-linecap="round" stroke-linejoin="round" stroke-miterlimit="10" x1="215.7" y1="139.8" x2="215.7" y2="151.7"/>
	
		<line fill="none" stroke="#000000" stroke-linecap="round" stroke-linejoin="round" stroke-miterlimit="10" x1="211.7" y1="139.8" x2="211.7" y2="151.7"/>
	
		<line fill="none" stroke="#000000" stroke-linecap="round" stroke-linejoin="round" stroke-miterlimit="10" x1="225.6" y1="139.8" x2="225.6" y2="151.7"/>
	
		<line fill="none" stroke="#000000" stroke-linecap="round" stroke-linejoin="round" stroke-miterlimit="10" x1="221.6" y1="139.8" x2="221.6" y2="151.7"/>
	
		<line fill="none" stroke="#000000" stroke-linecap="round" stroke-linejoin="round" stroke-miterlimit="10" x1="229.6" y1="139.8" x2="229.6" y2="151.7"/>
	
		<line fill="none" stroke="#000000" stroke-linecap="round" stroke-linejoin="round" stroke-miterlimit="10" x1="205.7" y1="127.9" x2="211.7" y2="127.9"/>
	
		<line fill="none" stroke="#000000" stroke-linecap="round" stroke-linejoin="round" stroke-miterlimit="10" x1="225.6" y1="127.9" x2="231.5" y2="127.9"/>
	<path fill="none" stroke="#000000" stroke-linecap="round" stroke-linejoin="round" stroke-miterlimit="10" d="M221.6,127.9"/>
	<polyline fill="none" stroke="#000000" stroke-linecap="round" stroke-linejoin="round" stroke-miterlimit="10" points="
		215.7,121.9 218.6,124.9 221.6,121.9 	"/>
	<path fill="none" stroke="#000000" stroke-linecap="round" stroke-linejoin="round" stroke-miterlimit="10" d="M221.6,127.9v2
		c0,1.1,0.9,2,2,2h7.9v4h-25.8v-4h7.9c1.1,0,2-0.9,2-2v-2H221.6"/>
</g>
<g opacity="3.000000e-02">
	<polygon fill="none" stroke="#000000" stroke-linecap="round" stroke-linejoin="round" stroke-miterlimit="10" points="292.9,157 
		292.3,158.4 290.9,159.1 292.3,159.8 292.9,161.2 293.6,159.8 295,159.1 293.6,158.4 	"/>
	<polygon fill="none" stroke="#000000" stroke-linecap="round" stroke-linejoin="round" stroke-miterlimit="10" points="
		298.5,157.7 297.8,159.8 295.7,160.5 297.8,161.2 298.5,163.2 299.2,161.2 301.2,160.5 299.2,159.8 	"/>
	<polygon fill="none" stroke="#000000" stroke-linecap="round" stroke-linejoin="round" stroke-miterlimit="10" points="
		296.4,152.9 295.7,154.9 293.6,155.6 295.7,156.3 296.4,158.4 297.1,156.3 299.2,155.6 297.1,154.9 	"/>
</g>
<g opacity="3.000000e-02">
	
		<line fill="none" stroke="#000000" stroke-linecap="round" stroke-linejoin="round" stroke-miterlimit="10" x1="94.8" y1="247.4" x2="94.8" y2="247.4"/>
	<path fill="none" stroke="#000000" stroke-linecap="round" stroke-linejoin="round" stroke-miterlimit="10" d="M83.9,248.8l0.9-0.9
		c0.6-0.6,1.7-0.6,2.3,0c0.2,0.2,0.3,0.3,0.5,0.5c0.6,0.6,1.7,0.6,2.3,0l2.9-2.9c1.1-1.1,2.8-1.1,3.8,0c1.1,1.1,1.1,2.8,0,3.8
		l-2.9,2.9c-0.6,0.6-0.6,1.7,0,2.3l0.5,0.5c0.6,0.6,0.6,1.7,0,2.3l-0.9,0.9"/>
	
		<line fill="none" stroke="#000000" stroke-linecap="round" stroke-linejoin="round" stroke-miterlimit="10" x1="83.2" y1="255.6" x2="80.2" y2="258.6"/>
	
		<line fill="none" stroke="#000000" stroke-linecap="round" stroke-linejoin="round" stroke-miterlimit="10" x1="86.6" y1="259" x2="83.6" y2="262"/>
	<path fill="none" stroke="#000000" stroke-linecap="round" stroke-linejoin="round" stroke-miterlimit="10" d="M82.6,250.1
		c-1.8,1.8-3.9,3.4-6.1,4.8l10.9,10.9c1.3-2.2,2.9-4.3,4.7-6.1L82.6,250.1z"/>
</g>
<g opacity="3.000000e-02">
	<path fill="none" stroke="#000000" stroke-linecap="round" stroke-linejoin="round" stroke-miterlimit="10" d="M104.8,175.6
		c2-0.2,4,0.8,5.1,2.5c2.9,4.8,4.7,10.2,5.3,15.8c0.2,2-0.8,4-2.5,5.1c-4.8,2.9-10.2,4.7-15.8,5.3c-2,0.2-4-0.8-5.1-2.5
		c-2.9-4.8-4.7-10.2-5.3-15.8c-0.2-2,0.8-4,2.5-5.1C93.8,178,99.2,176.2,104.8,175.6z"/>
	<path fill="none" stroke="#000000" stroke-linecap="round" stroke-linejoin="round" stroke-miterlimit="10" d="M98,195.6
		c3.1,1.4,6.8,0.2,8.4-2.8"/>
	
		<circle fill="none" stroke="#000000" stroke-linecap="round" stroke-linejoin="round" stroke-miterlimit="10" cx="94.1" cy="192.2" r="0.9"/>
	
		<circle fill="none" stroke="#000000" stroke-linecap="round" stroke-linejoin="round" stroke-miterlimit="10" cx="107.5" cy="187.7" r="0.9"/>
</g>
<g opacity="3.000000e-02">
	<path fill="none" stroke="#000000" stroke-linecap="round" stroke-linejoin="round" stroke-miterlimit="10" d="M13.2,259.6
		c0.5-1,0.1-2.2-0.9-2.7s-2.2-0.1-2.7,0.9C9,259,9,261,10,261.5C11,262,12.6,260.9,13.2,259.6z"/>
	<path fill="none" stroke="#000000" stroke-linecap="round" stroke-linejoin="round" stroke-miterlimit="10" d="M12.4,260.8
		c0.7-0.8,0.5-1.4,0-1.9c-0.3-0.4-0.5-0.8-0.3-1.3c-0.2,0.4-0.7,0.5-1.2,0.5c-0.7-0.1-1.3,0.1-1.6,1.1"/>
	<path fill="none" stroke="#000000" stroke-linecap="round" stroke-linejoin="round" stroke-miterlimit="10" d="M9.7,257.8
		c-0.6,1.1-1.5,1.8-1.5,1.8l1.1,0.9"/>
	<path fill="none" stroke="#000000" stroke-linecap="round" stroke-linejoin="round" stroke-miterlimit="10" d="M13.2,259.6
		c-0.6,1.1-0.5,2.3-0.5,2.3l-1.4-0.4"/>
	<path fill="none" stroke="#000000" stroke-linecap="round" stroke-linejoin="round" stroke-miterlimit="10" d="M8.8,261.5
		c-0.1,0-0.3,0-0.4,0l-1.3-0.3c-0.4-0.1-0.8,0.1-1.1,0.4l-0.4,0.5c0,0,0.4,1.1,2.9,2.4c2.5,1.3,3.7,0.9,3.7,0.9l0.1-0.6
		c0.1-0.4,0-0.8-0.3-1.1l-1-0.9c-0.1-0.1-0.2-0.2-0.2-0.3l0,0"/>
</g>
<g opacity="3.000000e-02">
	<path fill="none" stroke="#000000" stroke-linecap="round" stroke-linejoin="round" stroke-miterlimit="10" d="M189.3,135.2
		c-2.7,6.4-4.3,12.3-5.4,19.1c-2.4-1-4.9-1.8-7.4-2.3"/>
	<path fill="none" stroke="#000000" stroke-linecap="round" stroke-linejoin="round" stroke-miterlimit="10" d="M184.6,139.7
		l-11.2,4.5c-1.2,0.5-1.8,1.9-1.4,3.2l5,12.4c0.5,1.2,1.9,1.8,3.2,1.4l12.4-5c1.2-0.5,1.8-1.9,1.4-3.2l-4.3-10.7"/>
</g>
<g opacity="3.000000e-02">
	<path fill="none" stroke="#000000" stroke-miterlimit="10" d="M59.7,217c0.8-1.8-0.1-3.9-1.9-4.7c-1.8-0.8-3.9,0.1-4.7,1.9
		c-0.4,0.9-1.5,3.6-1.8,4.4c-0.8,1.8,0.1,3.9,1.9,4.7c1.8,0.8,3.9-0.1,4.7-1.9C58.3,220.6,59.4,217.9,59.7,217z"/>
	<path fill="none" stroke="#000000" stroke-linecap="round" stroke-linejoin="round" stroke-miterlimit="10" d="M60.6,221.3
		l-0.5,1.1c-1.3,3.1-4.8,4.5-7.8,3.3c-3.1-1.3-4.5-4.8-3.3-7.8l0.5-1.1"/>
	
		<line fill="none" stroke="#000000" stroke-linecap="round" stroke-linejoin="round" stroke-miterlimit="10" x1="46.5" y1="227.1" x2="55.3" y2="230.8"/>
	
		<line fill="none" stroke="#000000" stroke-linecap="round" stroke-linejoin="round" stroke-miterlimit="10" x1="52.3" y1="225.7" x2="50.9" y2="229"/>
</g>
<line opacity="3.000000e-02" fill="none" stroke="#000000" stroke-linecap="round" stroke-linejoin="round" stroke-miterlimit="10" enable-background="new    " x1="185.6" y1="160.4" x2="185.6" y2="161"/>
<g opacity="3.000000e-02">
	<path fill="none" stroke="#000000" stroke-linecap="round" stroke-linejoin="round" stroke-miterlimit="10" d="M302.2,241.6"/>
	<path fill="none" stroke="#000000" stroke-linecap="round" stroke-linejoin="round" stroke-miterlimit="10" d="M308.5,241.2
		c0,0-3.5-6.9-12.6-6.9c-9.1,0-12.6,6.8-12.6,6.8"/>
	<path fill="none" stroke="#000000" stroke-linecap="round" stroke-linejoin="round" stroke-miterlimit="10" d="M282.4,240.7
		c0.9,0.9,2.7,0.9,2.7,0.9s1.8,0,2.7-0.9c0.9,0.9,2.7,0.9,2.7,0.9s1.8,0,2.7-0.9c0.9,0.9,2.7,0.9,2.7,0.9s1.8,0,2.7-0.9
		c0.9,0.9,2.7,0.9,2.7,0.9s1.8,0,2.7-0.9c0.9,0.9,2.7,0.9,2.7,0.9s1.8,0,2.7-0.9"/>
	
		<line fill="none" stroke="#000000" stroke-linecap="round" stroke-linejoin="round" stroke-miterlimit="10" x1="293.1" y1="235.9" x2="290.8" y2="227.1"/>
	<path fill="none" stroke="#000000" stroke-linecap="round" stroke-linejoin="round" stroke-miterlimit="10" d="M299,223.1
		c0,0-1.1-0.3-2.6,0.7c-1.5,1-2.2,2.4-2.2,2.4s-1.6-0.5-3.7,0.1c-2.1,0.6-3.3,1.8-3.3,1.8s-1.7-1-3.1-1c-1.4-0.1-2.6,0.7-2.6,0.7
		c-0.7-2.5,1.7-7.9,6.8-9.3C293.6,217.1,298.4,220.5,299,223.1z"/>
	<path fill="none" stroke="#000000" stroke-linecap="round" stroke-linejoin="round" stroke-miterlimit="10" d="M288.5,218.4
		c0,0-3.1,2.5-1.1,9.6"/>
	<path fill="none" stroke="#000000" stroke-linecap="round" stroke-linejoin="round" stroke-miterlimit="10" d="M294.3,226.2
		c-1.9-7.1-5.8-7.8-5.8-7.8"/>
	
		<circle fill="none" stroke="#000000" stroke-linecap="round" stroke-linejoin="round" stroke-miterlimit="10" cx="303.1" cy="219.9" r="1.8"/>
	
		<line fill="none" stroke="#000000" stroke-linecap="round" stroke-linejoin="round" stroke-miterlimit="10" x1="303.1" y1="225.3" x2="303.1" y2="227.1"/>
	
		<line fill="none" stroke="#000000" stroke-linecap="round" stroke-linejoin="round" stroke-miterlimit="10" x1="310.3" y1="219.9" x2="308.5" y2="219.9"/>
	
		<line fill="none" stroke="#000000" stroke-linecap="round" stroke-linejoin="round" stroke-miterlimit="10" x1="299.3" y1="216.1" x2="298" y2="214.8"/>
	
		<line fill="none" stroke="#000000" stroke-linecap="round" stroke-linejoin="round" stroke-miterlimit="10" x1="308.2" y1="225" x2="306.9" y2="223.8"/>
	
		<line fill="none" stroke="#000000" stroke-linecap="round" stroke-linejoin="round" stroke-miterlimit="10" x1="308.2" y1="214.8" x2="306.9" y2="216.1"/>
</g>
<g opacity="3.000000e-02">
	<path fill="none" stroke="#000000" stroke-linecap="round" stroke-linejoin="round" stroke-miterlimit="10" d="M166.4,256.4
		c0.4,0.8,1.3,1.1,2,0.8l7.7-3.5c0.8-0.4,1.1-1.3,0.8-2l-2.9-6.3l-10.5,4.8C163.5,250.1,165.8,255,166.4,256.4z"/>
	<path fill="none" stroke="#000000" stroke-linecap="round" stroke-linejoin="round" stroke-miterlimit="10" d="M162.9,248.7
		l-0.3-0.7c-0.2-0.4,0-0.8,0.4-1l4.2-1.9c0.4-0.2,0.8,0,1,0.4l0.3,0.7"/>
</g>
<g opacity="3.000000e-02">
	<path fill="none" stroke="#000000" stroke-linecap="round" stroke-linejoin="round" stroke-miterlimit="10" d="M306.2,133.3
		c-0.1-0.2-0.4-0.3-0.6-0.3h-0.5l1.1-2.3c0.5-1.1,0-2.4-1-2.9l-6.9-3.2c-1-0.5-2.2,0-2.7,1l-3.2,6.9c-0.5,1.1,0,2.4,1,2.9l6.8,3.2
		c1.1,0.5,2.4,0,2.9-1l1.1-2.3l0.3,0.4c0.2,0.2,0.4,0.3,0.7,0.3c0.3,0,0.5-0.2,0.6-0.4l0.6-1.4C306.4,133.8,306.3,133.5,306.2,133.3
		z"/>
	
		<circle fill="none" stroke="#000000" stroke-linecap="round" stroke-linejoin="round" stroke-miterlimit="10" cx="299.1" cy="131.5" r="4.3"/>
	<polygon fill="none" stroke="#000000" stroke-linecap="round" stroke-linejoin="round" stroke-miterlimit="10" points="
		301.7,130.6 298.8,130.5 296.5,132.5 299.5,132.6 	"/>
	
		<circle fill="none" stroke="#000000" stroke-linecap="round" stroke-linejoin="round" stroke-miterlimit="10" cx="297.4" cy="126.8" r="0.7"/>
	
		<line fill="none" stroke="#000000" stroke-linecap="round" stroke-linejoin="round" stroke-miterlimit="10" x1="298.8" y1="130.5" x2="299.5" y2="132.6"/>
</g>
<g opacity="3.000000e-02">
	<path fill="none" stroke="#000000" stroke-linecap="round" stroke-linejoin="round" stroke-miterlimit="10" d="M34.5,226
		c0.7,1.8-0.2,3.9-2,4.6l-18.2,7.2c-1.8,0.7-3.9-0.2-4.6-2L3.8,221c-0.7-1.8,0.2-3.9,2-4.6l18.2-7.2c1.8-0.7,3.9,0.2,4.6,2L34.5,226
		z"/>
	
		<line fill="none" stroke="#000000" stroke-linecap="round" stroke-linejoin="round" stroke-miterlimit="10" x1="13" y1="234.6" x2="12.4" y2="232.9"/>
	
		<line fill="none" stroke="#000000" stroke-linecap="round" stroke-linejoin="round" stroke-miterlimit="10" x1="16.3" y1="233.3" x2="15.7" y2="231.6"/>
	
		<line fill="none" stroke="#000000" stroke-linecap="round" stroke-linejoin="round" stroke-miterlimit="10" x1="31.2" y1="227.4" x2="30.6" y2="225.7"/>
	
		<line fill="none" stroke="#000000" stroke-linecap="round" stroke-linejoin="round" stroke-miterlimit="10" x1="27.9" y1="228.7" x2="27.2" y2="227"/>
	
		<line fill="none" stroke="#000000" stroke-linecap="round" stroke-linejoin="round" stroke-miterlimit="10" x1="6.2" y1="212.4" x2="14.9" y2="212.8"/>
	
		<line fill="none" stroke="#000000" stroke-linecap="round" stroke-linejoin="round" stroke-miterlimit="10" x1="21" y1="206.5" x2="14.9" y2="212.8"/>
	<path fill="none" stroke="#000000" stroke-linecap="round" stroke-linejoin="round" stroke-miterlimit="10" d="M22.5,214.1
		c1.5-0.4,3.1,0.3,3.9,1.6c0.7,1.1,1.1,2.3,1.4,3.5c0.3,1.5-0.4,3-1.7,3.8c-3.8,2.2-8,3.9-12.3,4.9c-1.5,0.4-3.1-0.3-3.8-1.6
		c-0.7-1.1-1.1-2.3-1.4-3.5c-0.3-1.5,0.4-3.1,1.7-3.8C14.1,216.8,18.2,215.2,22.5,214.1z"/>
</g>
<g opacity="3.000000e-02">
	<path fill="none" stroke="#000000" stroke-linecap="round" stroke-linejoin="round" stroke-miterlimit="10" d="M116.3,156.4v1.9
		c0,1.1-0.9,1.9-1.9,1.9h-1.9c-1.1,0-1.9-0.9-1.9-1.9v-1.9"/>
	<path fill="none" stroke="#000000" stroke-linecap="round" stroke-linejoin="round" stroke-miterlimit="10" d="M110.4,152.6h5.8
		c3.2-2.9,7.8-6.4,7.8-11.6c0-5.9-4.8-9.7-10.7-9.7s-10.7,3.8-10.7,9.7C102.7,146.2,107.2,149.6,110.4,152.6z"/>
	<path fill="none" stroke="#000000" stroke-linecap="round" stroke-linejoin="round" stroke-miterlimit="10" d="M114.3,152.6
		c1.5-4.4,3.9-10.4,3.9-13.6c0-4.3-2.2-7.8-4.8-7.8c-2.7,0-4.8,3.5-4.8,7.8c0,3.2,2.4,9.1,3.9,13.6H114.3z"/>
	<path fill="none" stroke="#000000" stroke-linecap="round" stroke-linejoin="round" stroke-miterlimit="10" d="M98.8,137
		c-2.1,0-3.9,1.7-3.9,3.9c-2.1,0-3.9,1.7-3.9,3.9c0,2.2,1.7,3.9,3.9,3.9c2.1,0,5.8,0,5.8,0"/>
</g>
<g opacity="3.000000e-02">
	<path fill="none" stroke="#000000" stroke-linecap="round" stroke-linejoin="round" stroke-miterlimit="10" d="M74.6,288.2
		c0,0.3-0.2,0.5-0.5,0.5H73c-0.3,0-0.5-0.2-0.5-0.5v-1.1c0-0.3,0.2-0.5,0.5-0.5h1.1c0.3,0,0.5,0.2,0.5,0.5V288.2z"/>
	
		<line fill="none" stroke="#000000" stroke-linecap="round" stroke-linejoin="round" stroke-miterlimit="10" x1="76.8" y1="287.7" x2="81.1" y2="287.7"/>
	<path fill="none" stroke="#000000" stroke-linecap="round" stroke-linejoin="round" stroke-miterlimit="10" d="M74.6,292.5
		c0,0.3-0.2,0.5-0.5,0.5H73c-0.3,0-0.5-0.2-0.5-0.5v-1.1c0-0.3,0.2-0.5,0.5-0.5h1.1c0.3,0,0.5,0.2,0.5,0.5V292.5z"/>
	
		<line fill="none" stroke="#000000" stroke-linecap="round" stroke-linejoin="round" stroke-miterlimit="10" x1="76.8" y1="292" x2="81.1" y2="292"/>
	<path fill="none" stroke="#000000" stroke-linecap="round" stroke-linejoin="round" stroke-miterlimit="10" d="M83.2,294.2
		c0,1.2-1,2.2-2.2,2.2h-8.6c-1.2,0-2.2-1-2.2-2.2v-8.6c0-1.2,1-2.2,2.2-2.2H81c1.2,0,2.2,1,2.2,2.2V294.2z"/>
	<path fill="none" stroke="#000000" stroke-linecap="round" stroke-linejoin="round" stroke-miterlimit="10" d="M70.3,285.6h-1.1
		c-1.2,0-2.2,1-2.2,2.2v9.7c0,1.2,1,2.2,2.2,2.2h9.7c1.2,0,2.2-1,2.2-2.2v-1.1"/>
</g>
<path opacity="3.000000e-02" fill="none" stroke="#000000" stroke-linecap="round" stroke-linejoin="round" stroke-miterlimit="10" enable-background="new    " d="
	M81.9,133.7c0,0-5.7,0.4-7.3-1.5c-0.9-1.1-0.7-2.6,0.4-3.5c0.7-0.6,1.7-0.7,2.6-0.3c-0.2-0.9,0.1-1.8,0.8-2.4
	c1.1-0.9,2.6-0.7,3.5,0.4C83.5,128.2,81.9,133.7,81.9,133.7z"/>
<g opacity="3.000000e-02">
	
		<line fill="none" stroke="#000000" stroke-linecap="round" stroke-linejoin="round" stroke-miterlimit="10" x1="256.6" y1="295.2" x2="261.7" y2="292.8"/>
	<polyline fill="none" stroke="#000000" stroke-linecap="round" stroke-linejoin="round" stroke-miterlimit="10" points="
		257.9,291.5 261.7,292.8 260.3,296.5 	"/>
	<path fill="none" stroke="#000000" stroke-linecap="round" stroke-linejoin="round" stroke-miterlimit="10" d="M249,303.4
		c-0.1,0.3-0.3,0.6-0.5,0.8l-2.5,2.1c-0.8,0.7-1.1,1.7-0.9,2.7l0.3,1.5c0,0,2.8,1,9.1-2s7.3-5.8,7.3-5.8l-0.9-1.1
		c-0.6-0.8-1.6-1.2-2.6-1l-3.3,0.5c-0.3,0-0.6,0-0.9-0.1l0,0"/>
	<path fill="none" stroke="#000000" stroke-linecap="round" stroke-linejoin="round" stroke-miterlimit="10" d="M252,292
		c-1.2-2.4-4.1-3.5-6.5-2.3c-2.4,1.2-3.5,4.1-2.3,6.5c1.5,3.1,5.1,6,7.7,4.8C253.4,299.8,253.5,295.1,252,292z"/>
</g>
<g opacity="3.000000e-02">
	<polygon fill="none" stroke="#000000" stroke-linecap="round" stroke-linejoin="round" stroke-miterlimit="10" points="41.7,293.2 
		45.5,297 43,297.4 41.3,295.6 	"/>
	<path fill="none" stroke="#000000" stroke-linecap="round" stroke-linejoin="round" stroke-miterlimit="10" d="M40.9,296.2
		l-0.6,0.6c-0.2,0.2-0.2,0.5,0,0.6l0.9,0.9c0.2,0.2,0.5,0.2,0.6,0l0.6-0.6"/>
	<path fill="none" stroke="#000000" stroke-linecap="round" stroke-linejoin="round" stroke-miterlimit="10" d="M44,293.9
		c0.4,0,0.8,0.3,0.8,0.8"/>
	<path fill="none" stroke="#000000" stroke-linecap="round" stroke-linejoin="round" stroke-miterlimit="10" d="M44,292.8
		c1.1,0,1.9,0.9,1.9,1.9"/>
</g>
<g opacity="3.000000e-02">
	<path fill="none" stroke="#000000" stroke-linecap="round" stroke-linejoin="round" stroke-miterlimit="10" d="M200.1,268
		c-0.2,0.5-0.7,0.9-1.3,0.9H197c-0.6,0-1.1-0.3-1.3-0.9c-0.6-1.4-0.9-3-0.9-4.5v-0.7c0-0.3,0.3-0.6,0.6-0.6h4.9
		c0.3,0,0.6,0.3,0.6,0.6v0.7C201,265,200.7,266.5,200.1,268z"/>
	<path fill="none" stroke="#000000" stroke-linecap="round" stroke-linejoin="round" stroke-miterlimit="10" d="M201,264.6"/>
	<path fill="none" stroke="#000000" stroke-linecap="round" stroke-linejoin="round" stroke-miterlimit="10" d="M201.9,262.1h0.3
		c0.7,0,1.2,0.5,1.2,1.2c0,0.7-0.5,1.2-1.2,1.2h-0.3"/>
	<path fill="none" stroke="#000000" stroke-linecap="round" stroke-linejoin="round" stroke-miterlimit="10" d="M197.9,260.9
		c0.2-0.6,0.2-1.2,0-1.8"/>
	<path fill="none" stroke="#000000" stroke-linecap="round" stroke-linejoin="round" stroke-miterlimit="10" d="M196.8,260.9
		L196.8,260.9c-0.2-0.4-0.2-0.9,0-1.2"/>
	<path fill="none" stroke="#000000" stroke-linecap="round" stroke-linejoin="round" stroke-miterlimit="10" d="M199.1,260.9
		L199.1,260.9c0.2-0.4,0.2-0.9,0-1.2"/>
</g>
<path opacity="3.000000e-02" fill="none" stroke="#000000" stroke-linecap="round" stroke-linejoin="round" stroke-miterlimit="10" enable-background="new    " d="
	M138,275.6c-0.1,0.1-0.3,0.1-0.5,0l-0.6-0.5l-1.7,0.8v0.8c0,0.2,0.1,0.5,0.3,0.6c0.2,0.2,0.4,0.2,0.7,0.2c1.4-0.2,2.6-0.8,3.6-1.8
	s1.6-2.2,1.8-3.6c0-0.2,0-0.5-0.2-0.7c-0.2-0.2-0.4-0.3-0.6-0.3H140l-1,1.9l0.5,0.6c0.1,0.1,0.1,0.3,0,0.5
	C139.1,274.7,138.6,275.3,138,275.6z"/>
<g opacity="3.000000e-02">
	
		<line fill="none" stroke="#000000" stroke-linecap="round" stroke-linejoin="round" stroke-miterlimit="10" x1="50.7" y1="172.2" x2="45.1" y2="199.4"/>
	
		<line fill="none" stroke="#000000" stroke-linecap="round" stroke-linejoin="round" stroke-miterlimit="10" x1="58.1" y1="172.2" x2="52.5" y2="199.4"/>
	
		<line fill="none" stroke="#000000" stroke-linecap="round" stroke-linejoin="round" stroke-miterlimit="10" x1="41.3" y1="181.2" x2="63.7" y2="181.2"/>
	
		<line fill="none" stroke="#000000" stroke-linecap="round" stroke-linejoin="round" stroke-miterlimit="10" x1="39.4" y1="190.8" x2="61.9" y2="190.8"/>
</g>
<path opacity="3.000000e-02" fill="none" stroke="#000000" stroke-linecap="round" stroke-linejoin="round" stroke-miterlimit="10" enable-background="new    " d="
	M58.4,279.8l-12-8.8l-12,8.7l4.6-13.5l-12-8.1h14.9l4.6-13.8L51,258h14.9l-12,8.1L58.4,279.8z"/>
</svg>
