<?xml version="1.0" encoding="utf-8"?>
<!-- Generator: Adobe Illustrator 18.1.1, SVG Export Plug-In . SVG Version: 6.00 Build 0)  -->
<!DOCTYPE svg PUBLIC "-//W3C//DTD SVG 1.1//EN" "http://www.w3.org/Graphics/SVG/1.1/DTD/svg11.dtd">
<svg version="1.1" id="Layer_1" xmlns="http://www.w3.org/2000/svg" xmlns:xlink="http://www.w3.org/1999/xlink" x="0px" y="0px"
	 viewBox="0 60.9 311.8 189.9" enable-background="new 0 60.9 311.8 189.9" xml:space="preserve">
<g opacity="0.1">
	<path fill="none" stroke="#000000" stroke-miterlimit="10" d="M91,158.9c-0.3-1.6-1.8-2.6-3.3-2.3c-1.6,0.3-2.6,1.7-2.3,3.3
		c0.4,2.1,2,4.5,3.7,4.2C90.7,163.9,91.4,161,91,158.9z"/>
	<path fill="none" stroke="#000000" stroke-miterlimit="10" d="M87.3,165.4c-0.1,0.2-0.3,0.3-0.5,0.4l-1.5,0.6
		c-0.7,0.3-1.2,1-1.1,1.8l0,1.7c0,0,1.5,0.6,5.8-0.2c4.3-0.8,5.5-1.9,5.5-1.9l-0.6-1.6c-0.3-0.7-0.9-1.2-1.7-1.3l-1.6-0.1
		c-0.2,0-0.4-0.1-0.6-0.2"/>
	<path fill="none" stroke="#000000" stroke-miterlimit="10" d="M96.9,159.1c-0.2-1.2-1.3-2-2.5-1.8c-1.2,0.2-1.9,1.4-1.7,2.5
		c0.2,1.4,1.3,2.9,2.7,2.6C96.6,162.3,97.1,160.5,96.9,159.1z"/>
	<path fill="none" stroke="#000000" stroke-miterlimit="10" d="M97.1,163.2c0.2,0.1,0.4,0.2,0.6,0.3l0.8,0.2c0.5,0.1,0.9,0.4,1,0.9
		l0.4,0.9c0,0-0.8,0.8-2.7,1.2"/>
</g>
<g opacity="0.1">
	<polyline fill="none" stroke="#000000" stroke-linecap="round" stroke-linejoin="round" stroke-miterlimit="10" points="
		230.4,113.8 230.4,117 227.5,117 	"/>
	<path fill="none" stroke="#000000" stroke-linecap="round" stroke-linejoin="round" stroke-miterlimit="10" d="M230.4,117
		c-0.7-0.7-2-3.3-4.9-3.3c-2.7,0-4.9,2.2-4.9,4.9v0.3"/>
	<polyline fill="none" stroke="#000000" stroke-linecap="round" stroke-linejoin="round" stroke-miterlimit="10" points="
		220.7,123.5 220.7,120.3 223.6,120.3 	"/>
	<path fill="none" stroke="#000000" stroke-linecap="round" stroke-linejoin="round" stroke-miterlimit="10" d="M220.7,120.3
		c0.7,0.7,2,3.3,4.9,3.3c2.7,0,4.9-2.2,4.9-4.9v-0.3"/>
</g>
<path opacity="0.1" fill="none" stroke="#000000" stroke-linecap="round" stroke-linejoin="round" stroke-miterlimit="10" d="
	M177.1,158.6c0.1-0.3-0.1-0.5-0.4-0.6l-1.2-0.3c-0.1,0-0.2-0.1-0.3-0.2l-0.5-0.8c-0.1-0.1-0.2-0.2-0.3-0.2l-1-0.2
	c-0.1,0-0.2,0-0.4,0.1l-0.8,0.5c-0.1,0.1-0.2,0.1-0.4,0.1l-1.2-0.3c-0.3-0.1-0.5,0.1-0.6,0.4l-0.9,4.1c-0.1,0.3,0.1,0.5,0.4,0.6
	l5.9,1.4c0.3,0.1,0.5-0.1,0.6-0.4L177.1,158.6z"/>
<circle opacity="0.1" fill="none" stroke="#000000" stroke-linecap="round" stroke-linejoin="round" stroke-miterlimit="10" cx="173.3" cy="159.9" r="1.6"/>
<circle opacity="0.1" fill="#D9381E" stroke="#000000" stroke-miterlimit="10" cx="175.7" cy="158.8" r="0.2"/>
<path opacity="0.1" fill="none" stroke="#000000" stroke-linecap="round" stroke-linejoin="round" stroke-miterlimit="10" d="
	M271.6,137.8c2.2,1,4.7,1.6,7.3,1.6v0c8.6,0,15.7-6.1,15.7-13.6c0-7.5-7-13.6-15.7-13.6s-15.7,6.1-15.7,13.6c0,1.5,0.3,3,0.8,4.3
	c0.5,1.3,1.3,2.5,2.2,3.7c1.9,2.4,1.6,7-0.9,9.7c2.5,0.2,5-0.6,6.9-2.1"/>
<g opacity="0.1">
	<circle fill="none" stroke="#000000" stroke-miterlimit="10" cx="145.1" cy="95.6" r="8.8"/>
	
		<line fill="none" stroke="#000000" stroke-linecap="round" stroke-linejoin="round" stroke-miterlimit="10" x1="158.3" y1="108.8" x2="153.1" y2="103.7"/>
</g>
<g opacity="0.1">
	
		<circle fill="none" stroke="#000000" stroke-linecap="round" stroke-linejoin="round" stroke-miterlimit="10" cx="190.8" cy="129" r="10.7"/>
	<path fill="none" stroke="#000000" stroke-linecap="round" stroke-linejoin="round" stroke-miterlimit="10" d="M186.9,138.9
		c0.6-1.9,0-4-1.6-5.2l-0.5-0.4"/>
	<path fill="none" stroke="#000000" stroke-linecap="round" stroke-linejoin="round" stroke-miterlimit="10" d="M196.2,119.8
		c-0.6,1.3-1.9,2.3-3.4,2.5l-1.4,0.2c-0.8,0.1-1.3,0.8-1.3,1.5c0,0.5,0.2,0.9,0.6,1.1c0.4,0.2,0.9,0.3,1.3,0l2.1-1
		c0.5-0.2,1.1-0.2,1.5,0.2c0.2,0.2,0.4,0.3,0.6,0.5c0.7,0.6,1.7,0.7,2.5,0.4l1.7-0.8"/>
	<path fill="none" stroke="#000000" stroke-linecap="round" stroke-linejoin="round" stroke-miterlimit="10" d="M184.1,128.3
		l0.6-0.6c1-0.9,1.2-2.4,0.6-3.6c-0.5-1-1.1-2.1-1.6-3.1"/>
	<path fill="none" stroke="#000000" stroke-linecap="round" stroke-linejoin="round" stroke-miterlimit="10" d="M184.1,128.3
		l-0.3,0.3c-0.5,0.5-0.8,1.3-0.8,2c0,0.8,0.4,1.5,1,2l0.9,0.7"/>
	<path fill="none" stroke="#000000" stroke-linecap="round" stroke-linejoin="round" stroke-miterlimit="10" d="M192.9,128.3
		c2.4,0,2.8,1.5,2.8,2.1c0,1.5-1.4,1.9-2,2.8c-1,1.4-0.8,3.6-0.8,3.6s-2.8-1.9-2.8-5C190,128.8,191.8,128.3,192.9,128.3z"/>
</g>
<path opacity="0.1" fill="none" stroke="#000000" stroke-linecap="round" stroke-linejoin="round" stroke-miterlimit="10" d="
	M121.5,156.8l-2,2l-0.5,0.5c-0.8,0.8-0.8,2.2,0,3c0.8,0.8,2.2,0.8,3,0l3-3c0.5-0.5,0.5-1.4,0-2c-0.5-0.5-1.4-0.5-2,0l-3,3
	c-0.3,0.3-0.3,0.7,0,1c0.3,0.3,0.7,0.3,1,0l2.1-2.1"/>
<g opacity="0.1">
	<circle fill="none" stroke="#000000" stroke-miterlimit="10" cx="129.1" cy="187.5" r="3.7"/>
	<path fill="none" stroke="#000000" stroke-linecap="round" stroke-linejoin="round" stroke-miterlimit="10" d="M139.7,189.1
		c0.4-0.1,0.6-0.4,0.6-0.7v-1.8c0-0.4-0.3-0.7-0.6-0.7l-2.2-0.5c-0.3,0-0.5-0.2-0.6-0.5c-0.1-0.4-0.3-0.8-0.5-1.1
		c-0.1-0.2-0.1-0.5,0-0.8l1.3-1.9c0.2-0.3,0.2-0.7-0.1-0.9l-1.2-1.2c-0.3-0.3-0.6-0.3-0.9-0.1l-1.9,1.3c-0.2,0.1-0.5,0.2-0.8,0
		c-0.4-0.2-0.8-0.3-1.1-0.5c-0.3-0.1-0.5-0.3-0.5-0.6l-0.5-2.2c-0.1-0.4-0.4-0.6-0.7-0.6h-1.8c-0.4,0-0.7,0.3-0.7,0.6l-0.5,2.2
		c0,0.3-0.2,0.5-0.5,0.6c-0.4,0.1-0.8,0.3-1.1,0.5c-0.2,0.1-0.5,0.1-0.8,0l-1.9-1.3c-0.3-0.2-0.7-0.2-0.9,0.1l-1.2,1.2
		c-0.3,0.3-0.3,0.6-0.1,0.9l1,1.5c0.3,0.4,0.3,1,0.1,1.4c-0.1,0.3-0.2,0.5-0.3,0.8c-0.1,0.3-0.3,0.5-0.6,0.5l-2.2,0.5
		c-0.4,0.1-0.6,0.4-0.6,0.7v1.8c0,0.4,0.3,0.7,0.6,0.7l2.2,0.5c0.3,0,0.5,0.2,0.6,0.5c0.1,0.4,0.3,0.8,0.5,1.1
		c0.1,0.2,0.1,0.5,0,0.8l-1.3,1.9c-0.2,0.3-0.2,0.7,0.1,0.9l1.2,1.2c0.3,0.3,0.6,0.3,0.9,0.1l1.9-1.3c0.2-0.1,0.5-0.2,0.8,0
		c0.4,0.2,0.8,0.3,1.1,0.5c0.3,0.1,0.5,0.3,0.5,0.6l0.5,2.2c0.1,0.4,0.4,0.6,0.7,0.6h1.8c0.4,0,0.7-0.3,0.7-0.6l0.5-2.2
		c0-0.3,0.2-0.5,0.5-0.6c0.4-0.1,0.8-0.3,1.1-0.5c0.2-0.1,0.5-0.1,0.8,0l1.9,1.3c0.3,0.2,0.7,0.2,0.9-0.1l1.2-1.2
		c0.3-0.3,0.3-0.6,0.1-0.9l-1.3-1.9c-0.1-0.2-0.2-0.5,0-0.8c0.2-0.4,0.3-0.8,0.5-1.1c0.1-0.3,0.3-0.5,0.6-0.5L139.7,189.1z"/>
</g>
<polygon opacity="0.1" fill="none" stroke="#000000" stroke-linecap="round" stroke-linejoin="round" stroke-miterlimit="10" points="
	215.4,216.6 216.9,228 228.2,230 217.9,235 219.3,246.3 211.5,238 201.2,242.9 206.6,232.9 198.7,224.6 210,226.7 "/>
<g opacity="0.1">
	<path fill="none" stroke="#000000" stroke-miterlimit="10" d="M6.9,111"/>
	<g>
		<path fill="none" stroke="#000000" stroke-linecap="round" stroke-linejoin="round" stroke-miterlimit="10" d="M18.8,108.8
			c-0.8-0.4-1.8-0.7-2.8-0.7s-1.9,0.2-2.8,0.7"/>
		<path fill="none" stroke="#000000" stroke-linecap="round" stroke-linejoin="round" stroke-miterlimit="10" d="M21.3,116.9
			c0.4-0.8,0.7-1.8,0.7-2.8s-0.2-1.9-0.7-2.8"/>
		<path fill="none" stroke="#000000" stroke-linecap="round" stroke-linejoin="round" stroke-miterlimit="10" d="M10.7,111.3
			c-0.4,0.8-0.7,1.8-0.7,2.8s0.2,1.9,0.7,2.8"/>
		<path fill="none" stroke="#000000" stroke-linecap="round" stroke-linejoin="round" stroke-miterlimit="10" d="M13.2,119.4
			c0.8,0.4,1.8,0.7,2.8,0.7s1.9-0.2,2.8-0.7"/>
	</g>
	<g>
		<path fill="none" stroke="#000000" stroke-linecap="round" stroke-linejoin="round" stroke-miterlimit="10" d="M14.6,110.8l-1.4-2
			c-0.1-0.2-0.3-0.3-0.5-0.3c-0.2,0-0.4,0-0.6,0.1c-0.3,0.2-0.6,0.5-0.9,0.7c-0.3,0.3-0.5,0.6-0.7,0.9c-0.1,0.2-0.2,0.4-0.1,0.6
			c0,0.2,0.2,0.4,0.3,0.5l2,1.4"/>
		<path fill="none" stroke="#000000" stroke-linecap="round" stroke-linejoin="round" stroke-miterlimit="10" d="M19.3,112.7l2-1.4
			c0.2-0.1,0.3-0.3,0.3-0.5c0-0.2,0-0.4-0.1-0.6c-0.2-0.3-0.5-0.6-0.7-0.9c-0.3-0.3-0.6-0.5-0.9-0.7c-0.2-0.1-0.4-0.2-0.6-0.1
			c-0.2,0-0.4,0.2-0.5,0.3l-1.4,2"/>
		<path fill="none" stroke="#000000" stroke-linecap="round" stroke-linejoin="round" stroke-miterlimit="10" d="M17.4,117.4l1.4,2
			c0.1,0.2,0.3,0.3,0.5,0.3c0.2,0,0.4,0,0.6-0.1c0.3-0.2,0.6-0.5,0.9-0.7c0.3-0.3,0.5-0.6,0.7-0.9c0.1-0.2,0.2-0.4,0.1-0.6
			c0-0.2-0.2-0.4-0.3-0.5l-2-1.4"/>
		<path fill="none" stroke="#000000" stroke-linecap="round" stroke-linejoin="round" stroke-miterlimit="10" d="M12.7,115.5l-2,1.4
			c-0.2,0.1-0.3,0.3-0.3,0.5c0,0.2,0,0.4,0.1,0.6c0.2,0.3,0.5,0.6,0.7,0.9c0.3,0.3,0.6,0.5,0.9,0.7c0.2,0.1,0.4,0.2,0.6,0.1
			c0.2,0,0.4-0.2,0.5-0.3l1.4-2"/>
	</g>
	
		<circle fill="none" stroke="#000000" stroke-linecap="round" stroke-linejoin="round" stroke-miterlimit="10" cx="16" cy="114.1" r="3.6"/>
</g>
<g opacity="0.1">
	<path fill="none" stroke="#000000" stroke-linecap="round" stroke-linejoin="round" stroke-miterlimit="10" d="M122.7,218.9
		c-0.5-1.6-2.2-2.6-3.8-2.2l-16.4,4.5c-1.6,0.5-2.6,2.2-2.2,3.8l3.7,13.4c0.5,1.6,2.2,2.6,3.8,2.2l16.4-4.5c1.6-0.5,2.6-2.2,2.2-3.8
		L122.7,218.9z"/>
	<polyline fill="none" stroke="#000000" stroke-linecap="round" stroke-linejoin="round" stroke-miterlimit="10" points="
		103.3,224.2 113.7,230.2 119.7,219.7 	"/>
</g>
<g opacity="0.1">
	<path fill="none" stroke="#000000" stroke-linecap="round" stroke-linejoin="round" stroke-miterlimit="10" d="M11.8,236.5l4,6.4
		c0.3,0.5,1,0.7,1.5,0.3l6.4-4c0.5-0.3,0.7-1,0.3-1.5l-4-6.4"/>
	<path fill="none" stroke="#000000" stroke-linecap="round" stroke-linejoin="round" stroke-miterlimit="10" d="M19.8,228.9l-10,6.3
		l-1.2-1.8c-0.3-0.5-0.2-1.2,0.3-1.5l8.2-5.2c0.5-0.3,1.2-0.2,1.5,0.3L19.8,228.9z"/>
	
		<line fill="none" stroke="#000000" stroke-linecap="round" stroke-linejoin="round" stroke-miterlimit="10" x1="14.6" y1="234.7" x2="18" y2="240.2"/>
	
		<line fill="none" stroke="#000000" stroke-linecap="round" stroke-linejoin="round" stroke-miterlimit="10" x1="17.3" y1="233" x2="20.8" y2="238.5"/>
	<path fill="none" stroke="#000000" stroke-linecap="round" stroke-linejoin="round" stroke-miterlimit="10" d="M11.7,230.2
		l-0.3-0.5c-0.5-0.8-0.3-1.8,0.5-2.2c0.8-0.5,1.8-0.3,2.2,0.5l0.3,0.5"/>
</g>
<g opacity="0.1">
	
		<circle fill="none" stroke="#000000" stroke-linecap="round" stroke-linejoin="round" stroke-miterlimit="10" cx="235.3" cy="160.4" r="11"/>
	<path fill="none" stroke="#000000" stroke-linecap="round" stroke-linejoin="round" stroke-miterlimit="10" d="M227,149
		c-1-0.4-2.1-0.4-3.2-0.1c-2.7,0.8-4.2,3.7-3.4,6.3c0.2,0.8,0.7,1.4,1.2,2"/>
	<path fill="none" stroke="#000000" stroke-linecap="round" stroke-linejoin="round" stroke-miterlimit="10" d="M235.8,146.3
		c0.6-0.9,1.5-1.5,2.6-1.9c2.7-0.8,5.5,0.7,6.3,3.4c0.2,0.8,0.3,1.6,0.1,2.3"/>
	<polyline fill="none" stroke="#000000" stroke-linecap="round" stroke-linejoin="round" stroke-miterlimit="10" points="
		231.5,162.5 236.4,161 234.4,154.5 	"/>
	
		<line fill="none" stroke="#000000" stroke-linecap="round" stroke-linejoin="round" stroke-miterlimit="10" x1="229.7" y1="173.7" x2="231.3" y2="170.6"/>
	
		<line fill="none" stroke="#000000" stroke-linecap="round" stroke-linejoin="round" stroke-miterlimit="10" x1="247.5" y1="168.2" x2="244.4" y2="166.6"/>
</g>
<g opacity="0.1">
	<path fill="none" stroke="#000000" stroke-linecap="round" stroke-linejoin="round" stroke-miterlimit="10" d="M153.7,230.5
		l7.1,2.7c-0.5,1.4,0.2,3,1.6,3.6c1.4,0.5,3-0.2,3.6-1.6l7.1,2.7l4.4-11.7c0.3-0.7-0.1-1.5-0.8-1.8l-16.9-6.3
		c-0.7-0.3-1.5,0.1-1.8,0.8L153.7,230.5z"/>
	<path fill="none" stroke="#000000" stroke-linecap="round" stroke-linejoin="round" stroke-miterlimit="10" d="M172.2,240.4l-1,2.6
		c-0.3,0.7-1.1,1.1-1.8,0.8l-16.9-6.3c-0.7-0.3-1.1-1.1-0.8-1.8l1-2.6"/>
	
		<line fill="none" stroke="#000000" stroke-linecap="round" stroke-linejoin="round" stroke-miterlimit="10" x1="161" y1="222.8" x2="172.7" y2="227.2"/>
	
		<line fill="none" stroke="#000000" stroke-linecap="round" stroke-linejoin="round" stroke-miterlimit="10" x1="160" y1="225.4" x2="171.7" y2="229.8"/>
	
		<line fill="none" stroke="#000000" stroke-linecap="round" stroke-linejoin="round" stroke-miterlimit="10" x1="159" y1="228" x2="170.7" y2="232.4"/>
</g>
<g opacity="0.1">
	<path fill="none" stroke="#000000" stroke-linecap="round" stroke-linejoin="round" stroke-miterlimit="10" d="M275.7,89.8
		c0.6-0.9,0.4-2.1-0.5-2.7l-17.9-12.3c-0.9-0.6-2.1-0.4-2.7,0.5l-6.7,9.7c-0.6,0.9-0.4,2.1,0.5,2.7l17.9,12.3
		c0.9,0.6,2.1,0.4,2.7-0.5L275.7,89.8z"/>
	<path fill="none" stroke="#000000" stroke-linecap="round" stroke-linejoin="round" stroke-miterlimit="10" d="M258.9,75.8l3.9-5.7
		c2.8-4,8.3-5.1,12.3-2.3c4,2.8,5.1,8.3,2.3,12.3l-3.9,5.7"/>
	<path fill="none" stroke="#000000" stroke-linecap="round" stroke-linejoin="round" stroke-miterlimit="10" d="M264.4,74.8l1.7-2.4
		c1.5-2.2,4.6-2.8,6.9-1.3c2.2,1.5,2.8,4.6,1.3,6.9l-1.7,2.4"/>
</g>
<path opacity="0.1" fill="none" stroke="#000000" stroke-linecap="round" stroke-linejoin="round" stroke-miterlimit="10" d="
	M253.5,183.4c-7,7-12.2,13.9-17.2,22.4c-2.6-2.6-5.5-4.9-8.6-6.9"/>
<g opacity="0.1">
	<path fill="none" stroke="#000000" stroke-miterlimit="10" d="M240.6,123.7"/>
	<g>
		<path fill="none" stroke="#000000" stroke-linecap="round" stroke-linejoin="round" stroke-miterlimit="10" d="M248.2,121.9
			l4.3-4.3c0.6-0.6,1.5-0.6,2.1,0c0.6,0.6,0.6,1.5,0,2l-4.4,4.4"/>
		<polyline fill="none" stroke="#000000" stroke-linecap="round" stroke-linejoin="round" stroke-miterlimit="10" points="
			247.4,122.7 246.2,126 249.4,124.8 		"/>
	</g>
	<path fill="none" stroke="#000000" stroke-linecap="round" stroke-linejoin="round" stroke-miterlimit="10" d="M247.4,122.7
		c1,0.2,1.8,1,2.1,2.1"/>
</g>
<g opacity="0.1">
	
		<line fill="none" stroke="#000000" stroke-linecap="round" stroke-linejoin="round" stroke-miterlimit="10" x1="195.4" y1="172.6" x2="192.5" y2="179.4"/>
	<path fill="none" stroke="#000000" stroke-linecap="round" stroke-linejoin="round" stroke-miterlimit="10" d="M202.6,173l1-2.3
		c0.5-1.3,0.6-2.7,0.1-4l-0.3-0.8c-0.5-1.3-0.5-2.7,0.1-4l1.2-2.8c0.3-0.7,0-1.4-0.7-1.7l-4.4-1.9c-0.7-0.3-1.4,0-1.7,0.7l-1.2,2.8
		c-0.5,1.3-1.6,2.3-2.9,2.8l-0.8,0.3c-1.3,0.5-2.3,1.5-2.9,2.8l-1,2.3L202.6,173z"/>
</g>
<g opacity="0.1">
	<path fill="none" stroke="#000000" stroke-linecap="round" stroke-linejoin="round" stroke-miterlimit="10" d="M159.9,72.4l1.8,0.3
		l0.7-3.6c0.1-0.7-0.3-1.3-1-1.4l-6.6-1.2c-0.7-0.1-1.3,0.3-1.4,1l-0.7,3.6l1.8,0.3"/>
	<polyline fill="none" stroke="#000000" stroke-linecap="round" stroke-linejoin="round" stroke-miterlimit="10" points="
		155.6,65.4 155.8,64.2 161.3,65.2 161,66.4 	"/>
	
		<rect x="154.5" y="70.1" transform="matrix(-0.9836 -0.1803 0.1803 -0.9836 298.9048 170.9826)" fill="none" stroke="#000000" stroke-linecap="round" stroke-linejoin="round" stroke-miterlimit="10" width="5.5" height="3.7"/>
	
		<line fill="none" stroke="#000000" stroke-linecap="round" stroke-linejoin="round" stroke-miterlimit="10" x1="154.2" y1="69.5" x2="160.9" y2="70.7"/>
</g>
<g opacity="0.1">
	<path fill="none" stroke="#000000" stroke-linecap="round" stroke-linejoin="round" stroke-miterlimit="10" d="M150.6,154.4
		c-1.5,1.5-3.9,1.5-5.4,0l-14.9-14.9c-1.5-1.5-1.5-3.9,0-5.4l12.2-12.2c1.5-1.5,3.9-1.5,5.4,0l14.9,14.9c1.5,1.5,1.5,3.9,0,5.4
		L150.6,154.4z"/>
	<polyline fill="none" stroke="#000000" stroke-linecap="round" stroke-linejoin="round" stroke-miterlimit="10" points="
		132.9,136.7 143.8,136.7 143.8,142.2 	"/>
	<polyline fill="none" stroke="#000000" stroke-linecap="round" stroke-linejoin="round" stroke-miterlimit="10" points="
		138.4,142.2 151.9,142.2 151.9,147.6 	"/>
	
		<circle fill="none" stroke="#000000" stroke-linecap="round" stroke-linejoin="round" stroke-miterlimit="10" cx="145.1" cy="130" r="1.9"/>
</g>
<g opacity="0.1">
	<path fill="none" stroke="#000000" stroke-linecap="round" stroke-linejoin="round" stroke-miterlimit="10" d="M16.1,66.7
		c0.1-1,1.1-1.7,2.1-1.5l23.5,3.4c1,0.1,1.7,1.1,1.5,2.1l-0.8,5.4l-27.1-4L16.1,66.7z"/>
	<path fill="none" stroke="#000000" stroke-linecap="round" stroke-linejoin="round" stroke-miterlimit="10" d="M41.9,79.7
		l-2.1,14.4c-0.1,1-1.1,1.7-2.1,1.5l-23.5-3.4c-1-0.1-1.7-1.1-1.5-2.1l2.1-14.4"/>
	
		<line fill="none" stroke="#000000" stroke-linecap="round" stroke-linejoin="round" stroke-miterlimit="10" x1="19.9" y1="78.3" x2="19.7" y2="80.1"/>
	
		<line fill="none" stroke="#000000" stroke-linecap="round" stroke-linejoin="round" stroke-miterlimit="10" x1="30.8" y1="79.9" x2="30.5" y2="81.7"/>
	
		<line fill="none" stroke="#000000" stroke-linecap="round" stroke-linejoin="round" stroke-miterlimit="10" x1="36.2" y1="80.7" x2="35.9" y2="82.5"/>
	
		<line fill="none" stroke="#000000" stroke-linecap="round" stroke-linejoin="round" stroke-miterlimit="10" x1="18.9" y1="85.6" x2="18.6" y2="87.4"/>
	
		<line fill="none" stroke="#000000" stroke-linecap="round" stroke-linejoin="round" stroke-miterlimit="10" x1="24.3" y1="86.4" x2="24" y2="88.2"/>
	
		<line fill="none" stroke="#000000" stroke-linecap="round" stroke-linejoin="round" stroke-miterlimit="10" x1="29.7" y1="87.2" x2="29.4" y2="89"/>
	
		<line fill="none" stroke="#000000" stroke-linecap="round" stroke-linejoin="round" stroke-miterlimit="10" x1="35.1" y1="88" x2="34.8" y2="89.8"/>
	<path fill="none" stroke="#000000" stroke-linecap="round" stroke-linejoin="round" stroke-miterlimit="10" d="M26.9,81.2
		c-0.1,1-1.1,1.7-2.1,1.5c-1-0.1-1.7-1.1-1.5-2.1l0.3-1.8c0.1-1,1.1-1.7,2.1-1.5c1,0.1,1.7,1.1,1.5,2.1L26.9,81.2z"/>
</g>
<g opacity="0.1">
	
		<line fill="none" stroke="#000000" stroke-linecap="round" stroke-linejoin="round" stroke-miterlimit="10" x1="63.7" y1="88.8" x2="63.7" y2="95"/>
	
		<line fill="none" stroke="#000000" stroke-linecap="round" stroke-linejoin="round" stroke-miterlimit="10" x1="60.6" y1="91.9" x2="66.8" y2="91.9"/>
</g>
<g opacity="0.1">
	<path fill="none" stroke="#000000" stroke-linecap="round" stroke-linejoin="round" stroke-miterlimit="10" d="M280.5,208.3l22,8.6
		c0.7,0.3,1.3,0.8,1.5,1.5c0.3,0.7,0.2,1.5-0.1,2.2l-4.1,7.9c-1.2,2.2-3.7,3.3-6.1,2.6l-16.3-4.6c-2.4-0.7-4-2.9-3.8-5.4l1.2-17.9
		c0.1-1.2-0.7-2.4-1.9-2.7l-3.6-1"/>
	
		<circle fill="none" stroke="#000000" stroke-linecap="round" stroke-linejoin="round" stroke-miterlimit="10" cx="275.9" cy="234.4" r="2.6"/>
	
		<circle fill="none" stroke="#000000" stroke-linecap="round" stroke-linejoin="round" stroke-miterlimit="10" cx="291.3" cy="238.7" r="2.6"/>
</g>
<g opacity="0.1">
	
		<line fill="none" stroke="#000000" stroke-linecap="round" stroke-linejoin="round" stroke-miterlimit="10" x1="207.7" y1="78.8" x2="207.7" y2="90.7"/>
	
		<line fill="none" stroke="#000000" stroke-linecap="round" stroke-linejoin="round" stroke-miterlimit="10" x1="215.7" y1="78.8" x2="215.7" y2="90.7"/>
	
		<line fill="none" stroke="#000000" stroke-linecap="round" stroke-linejoin="round" stroke-miterlimit="10" x1="211.7" y1="78.8" x2="211.7" y2="90.7"/>
	
		<line fill="none" stroke="#000000" stroke-linecap="round" stroke-linejoin="round" stroke-miterlimit="10" x1="225.6" y1="78.8" x2="225.6" y2="90.7"/>
	
		<line fill="none" stroke="#000000" stroke-linecap="round" stroke-linejoin="round" stroke-miterlimit="10" x1="221.6" y1="78.8" x2="221.6" y2="90.7"/>
	
		<line fill="none" stroke="#000000" stroke-linecap="round" stroke-linejoin="round" stroke-miterlimit="10" x1="229.6" y1="78.8" x2="229.6" y2="90.7"/>
	
		<line fill="none" stroke="#000000" stroke-linecap="round" stroke-linejoin="round" stroke-miterlimit="10" x1="205.7" y1="66.9" x2="211.7" y2="66.9"/>
	
		<line fill="none" stroke="#000000" stroke-linecap="round" stroke-linejoin="round" stroke-miterlimit="10" x1="225.6" y1="66.9" x2="231.5" y2="66.9"/>
	<path fill="none" stroke="#000000" stroke-linecap="round" stroke-linejoin="round" stroke-miterlimit="10" d="M221.6,66.9"/>
	<polyline fill="none" stroke="#000000" stroke-linecap="round" stroke-linejoin="round" stroke-miterlimit="10" points="
		215.7,60.9 218.6,63.9 221.6,60.9 	"/>
	<path fill="none" stroke="#000000" stroke-linecap="round" stroke-linejoin="round" stroke-miterlimit="10" d="M221.6,66.9v2
		c0,1.1,0.9,2,2,2h7.9v4h-25.8v-4h7.9c1.1,0,2-0.9,2-2v-2H221.6"/>
</g>
<g opacity="0.1">
	<polygon fill="none" stroke="#000000" stroke-linecap="round" stroke-linejoin="round" stroke-miterlimit="10" points="292.9,96 
		292.3,97.4 290.9,98.1 292.3,98.8 292.9,100.2 293.6,98.8 295,98.1 293.6,97.4 	"/>
	<polygon fill="none" stroke="#000000" stroke-linecap="round" stroke-linejoin="round" stroke-miterlimit="10" points="298.5,96.7 
		297.8,98.8 295.7,99.5 297.8,100.2 298.5,102.2 299.2,100.2 301.2,99.5 299.2,98.8 	"/>
	<polygon fill="none" stroke="#000000" stroke-linecap="round" stroke-linejoin="round" stroke-miterlimit="10" points="296.4,91.9 
		295.7,93.9 293.6,94.6 295.7,95.3 296.4,97.4 297.1,95.3 299.2,94.6 297.1,93.9 	"/>
</g>
<g opacity="0.1">
	
		<line fill="none" stroke="#000000" stroke-linecap="round" stroke-linejoin="round" stroke-miterlimit="10" x1="94.8" y1="186.4" x2="94.8" y2="186.4"/>
	<path fill="none" stroke="#000000" stroke-linecap="round" stroke-linejoin="round" stroke-miterlimit="10" d="M83.9,187.8l0.9-0.9
		c0.6-0.6,1.7-0.6,2.3,0c0.2,0.2,0.3,0.3,0.5,0.5c0.6,0.6,1.7,0.6,2.3,0l2.9-2.9c1.1-1.1,2.8-1.1,3.8,0c1.1,1.1,1.1,2.8,0,3.8
		l-2.9,2.9c-0.6,0.6-0.6,1.7,0,2.3l0.5,0.5c0.6,0.6,0.6,1.7,0,2.3l-0.9,0.9"/>
	
		<line fill="none" stroke="#000000" stroke-linecap="round" stroke-linejoin="round" stroke-miterlimit="10" x1="83.2" y1="194.6" x2="80.2" y2="197.6"/>
	
		<line fill="none" stroke="#000000" stroke-linecap="round" stroke-linejoin="round" stroke-miterlimit="10" x1="86.6" y1="198" x2="83.6" y2="201"/>
	<path fill="none" stroke="#000000" stroke-linecap="round" stroke-linejoin="round" stroke-miterlimit="10" d="M82.6,189.1
		c-1.8,1.8-3.9,3.4-6.1,4.8l10.9,10.9c1.3-2.2,2.9-4.3,4.7-6.1L82.6,189.1z"/>
</g>
<g opacity="0.1">
	<path fill="none" stroke="#000000" stroke-linecap="round" stroke-linejoin="round" stroke-miterlimit="10" d="M104.8,114.6
		c2-0.2,4,0.8,5.1,2.5c2.9,4.8,4.7,10.2,5.3,15.8c0.2,2-0.8,4-2.5,5.1c-4.8,2.9-10.2,4.7-15.8,5.3c-2,0.2-4-0.8-5.1-2.5
		c-2.9-4.8-4.7-10.2-5.3-15.8c-0.2-2,0.8-4,2.5-5.1C93.8,117,99.2,115.2,104.8,114.6z"/>
	<path fill="none" stroke="#000000" stroke-linecap="round" stroke-linejoin="round" stroke-miterlimit="10" d="M98,134.6
		c3.1,1.4,6.8,0.2,8.4-2.8"/>
	
		<circle fill="none" stroke="#000000" stroke-linecap="round" stroke-linejoin="round" stroke-miterlimit="10" cx="94.1" cy="131.2" r="0.9"/>
	
		<circle fill="none" stroke="#000000" stroke-linecap="round" stroke-linejoin="round" stroke-miterlimit="10" cx="107.5" cy="126.7" r="0.9"/>
</g>
<g opacity="0.1">
	<path fill="none" stroke="#000000" stroke-linecap="round" stroke-linejoin="round" stroke-miterlimit="10" d="M13.2,198.6
		c0.5-1,0.1-2.2-0.9-2.7c-1-0.5-2.2-0.1-2.7,0.9C9,198,9,200,10,200.5C11,201,12.6,199.9,13.2,198.6z"/>
	<path fill="none" stroke="#000000" stroke-linecap="round" stroke-linejoin="round" stroke-miterlimit="10" d="M12.4,199.8
		c0.7-0.8,0.5-1.4,0-1.9c-0.3-0.4-0.5-0.8-0.3-1.3c-0.2,0.4-0.7,0.5-1.2,0.5c-0.7-0.1-1.3,0.1-1.6,1.1"/>
	<path fill="none" stroke="#000000" stroke-linecap="round" stroke-linejoin="round" stroke-miterlimit="10" d="M9.7,196.8
		c-0.6,1.1-1.5,1.8-1.5,1.8l1.1,0.9"/>
	<path fill="none" stroke="#000000" stroke-linecap="round" stroke-linejoin="round" stroke-miterlimit="10" d="M13.2,198.6
		c-0.6,1.1-0.5,2.3-0.5,2.3l-1.4-0.4"/>
	<path fill="none" stroke="#000000" stroke-linecap="round" stroke-linejoin="round" stroke-miterlimit="10" d="M8.8,200.5
		c-0.1,0-0.3,0-0.4,0l-1.3-0.3c-0.4-0.1-0.8,0.1-1.1,0.4l-0.4,0.5c0,0,0.4,1.1,2.9,2.4c2.5,1.3,3.7,0.9,3.7,0.9l0.1-0.6
		c0.1-0.4,0-0.8-0.3-1.1l-1-0.9c-0.1-0.1-0.2-0.2-0.2-0.3v0"/>
</g>
<g opacity="0.1">
	<path fill="none" stroke="#000000" stroke-linecap="round" stroke-linejoin="round" stroke-miterlimit="10" d="M189.3,74.2
		c-2.7,6.4-4.3,12.3-5.4,19.1c-2.4-1-4.9-1.8-7.4-2.3"/>
	<path fill="none" stroke="#000000" stroke-linecap="round" stroke-linejoin="round" stroke-miterlimit="10" d="M184.6,78.7
		l-11.2,4.5c-1.2,0.5-1.8,1.9-1.4,3.2l5,12.4c0.5,1.2,1.9,1.8,3.2,1.4l12.4-5c1.2-0.5,1.8-1.9,1.4-3.2l-4.3-10.7"/>
</g>
<g opacity="0.1">
	<path fill="none" stroke="#000000" stroke-miterlimit="10" d="M59.7,156c0.8-1.8-0.1-3.9-1.9-4.7c-1.8-0.8-3.9,0.1-4.7,1.9
		c-0.4,0.9-1.5,3.6-1.8,4.4c-0.8,1.8,0.1,3.9,1.9,4.7c1.8,0.8,3.9-0.1,4.7-1.9C58.3,159.6,59.4,156.9,59.7,156z"/>
	<path fill="none" stroke="#000000" stroke-linecap="round" stroke-linejoin="round" stroke-miterlimit="10" d="M60.6,160.3
		l-0.5,1.1c-1.3,3.1-4.8,4.5-7.8,3.3c-3.1-1.3-4.5-4.8-3.3-7.8l0.5-1.1"/>
	
		<line fill="none" stroke="#000000" stroke-linecap="round" stroke-linejoin="round" stroke-miterlimit="10" x1="46.5" y1="166.1" x2="55.3" y2="169.8"/>
	
		<line fill="none" stroke="#000000" stroke-linecap="round" stroke-linejoin="round" stroke-miterlimit="10" x1="52.3" y1="164.7" x2="50.9" y2="168"/>
</g>
<line opacity="0.1" fill="none" stroke="#000000" stroke-linecap="round" stroke-linejoin="round" stroke-miterlimit="10" x1="185.6" y1="99.4" x2="185.6" y2="100"/>
<g opacity="0.1">
	<path fill="none" stroke="#000000" stroke-linecap="round" stroke-linejoin="round" stroke-miterlimit="10" d="M302.2,180.6"/>
	<path fill="none" stroke="#000000" stroke-linecap="round" stroke-linejoin="round" stroke-miterlimit="10" d="M308.5,180.2
		c0,0-3.5-6.9-12.6-6.9s-12.6,6.8-12.6,6.8"/>
	<path fill="none" stroke="#000000" stroke-linecap="round" stroke-linejoin="round" stroke-miterlimit="10" d="M282.4,179.7
		c0.9,0.9,2.7,0.9,2.7,0.9s1.8,0,2.7-0.9c0.9,0.9,2.7,0.9,2.7,0.9s1.8,0,2.7-0.9c0.9,0.9,2.7,0.9,2.7,0.9s1.8,0,2.7-0.9
		c0.9,0.9,2.7,0.9,2.7,0.9s1.8,0,2.7-0.9c0.9,0.9,2.7,0.9,2.7,0.9s1.8,0,2.7-0.9"/>
	
		<line fill="none" stroke="#000000" stroke-linecap="round" stroke-linejoin="round" stroke-miterlimit="10" x1="293.1" y1="174.9" x2="290.8" y2="166.1"/>
	<path fill="none" stroke="#000000" stroke-linecap="round" stroke-linejoin="round" stroke-miterlimit="10" d="M299,162.1
		c0,0-1.1-0.3-2.6,0.7s-2.2,2.4-2.2,2.4s-1.6-0.5-3.7,0.1s-3.3,1.8-3.3,1.8s-1.7-1-3.1-1c-1.4-0.1-2.6,0.7-2.6,0.7
		c-0.7-2.5,1.7-7.9,6.8-9.3C293.6,156.1,298.4,159.5,299,162.1z"/>
	<path fill="none" stroke="#000000" stroke-linecap="round" stroke-linejoin="round" stroke-miterlimit="10" d="M288.5,157.4
		c0,0-3.1,2.5-1.1,9.6"/>
	<path fill="none" stroke="#000000" stroke-linecap="round" stroke-linejoin="round" stroke-miterlimit="10" d="M294.3,165.2
		c-1.9-7.1-5.8-7.8-5.8-7.8"/>
	
		<circle fill="none" stroke="#000000" stroke-linecap="round" stroke-linejoin="round" stroke-miterlimit="10" cx="303.1" cy="158.9" r="1.8"/>
	
		<line fill="none" stroke="#000000" stroke-linecap="round" stroke-linejoin="round" stroke-miterlimit="10" x1="303.1" y1="164.3" x2="303.1" y2="166.1"/>
	
		<line fill="none" stroke="#000000" stroke-linecap="round" stroke-linejoin="round" stroke-miterlimit="10" x1="310.3" y1="158.9" x2="308.5" y2="158.9"/>
	
		<line fill="none" stroke="#000000" stroke-linecap="round" stroke-linejoin="round" stroke-miterlimit="10" x1="299.3" y1="155.1" x2="298" y2="153.8"/>
	
		<line fill="none" stroke="#000000" stroke-linecap="round" stroke-linejoin="round" stroke-miterlimit="10" x1="308.2" y1="164" x2="306.9" y2="162.8"/>
	
		<line fill="none" stroke="#000000" stroke-linecap="round" stroke-linejoin="round" stroke-miterlimit="10" x1="308.2" y1="153.8" x2="306.9" y2="155.1"/>
</g>
<g opacity="0.1">
	<path fill="none" stroke="#000000" stroke-linecap="round" stroke-linejoin="round" stroke-miterlimit="10" d="M166.4,195.4
		c0.4,0.8,1.3,1.1,2,0.8l7.7-3.5c0.8-0.4,1.1-1.3,0.8-2l-2.9-6.3l-10.5,4.8C163.5,189.1,165.8,194,166.4,195.4z"/>
	<path fill="none" stroke="#000000" stroke-linecap="round" stroke-linejoin="round" stroke-miterlimit="10" d="M162.9,187.7
		l-0.3-0.7c-0.2-0.4,0-0.8,0.4-1l4.2-1.9c0.4-0.2,0.8,0,1,0.4l0.3,0.7"/>
</g>
<g opacity="0.1">
	<path fill="none" stroke="#000000" stroke-linecap="round" stroke-linejoin="round" stroke-miterlimit="10" d="M306.2,72.3
		c-0.1-0.2-0.4-0.3-0.6-0.3l-0.5,0l1.1-2.3c0.5-1.1,0-2.4-1-2.9l-6.9-3.2c-1-0.5-2.2,0-2.7,1l-3.2,6.9c-0.5,1.1,0,2.4,1,2.9l6.8,3.2
		c1.1,0.5,2.4,0,2.9-1l1.1-2.3l0.3,0.4c0.2,0.2,0.4,0.3,0.7,0.3c0.3,0,0.5-0.2,0.6-0.4l0.6-1.4C306.4,72.8,306.3,72.5,306.2,72.3z"
		/>
	
		<circle fill="none" stroke="#000000" stroke-linecap="round" stroke-linejoin="round" stroke-miterlimit="10" cx="299.1" cy="70.5" r="4.3"/>
	<polygon fill="none" stroke="#000000" stroke-linecap="round" stroke-linejoin="round" stroke-miterlimit="10" points="301.7,69.6 
		298.8,69.5 296.5,71.5 299.5,71.6 	"/>
	
		<circle fill="none" stroke="#000000" stroke-linecap="round" stroke-linejoin="round" stroke-miterlimit="10" cx="297.4" cy="65.8" r="0.7"/>
	
		<line fill="none" stroke="#000000" stroke-linecap="round" stroke-linejoin="round" stroke-miterlimit="10" x1="298.8" y1="69.5" x2="299.5" y2="71.6"/>
</g>
<g opacity="0.1">
	<path fill="none" stroke="#000000" stroke-linecap="round" stroke-linejoin="round" stroke-miterlimit="10" d="M34.5,165
		c0.7,1.8-0.2,3.9-2,4.6l-18.2,7.2c-1.8,0.7-3.9-0.2-4.6-2L3.8,160c-0.7-1.8,0.2-3.9,2-4.6l18.2-7.2c1.8-0.7,3.9,0.2,4.6,2L34.5,165
		z"/>
	
		<line fill="none" stroke="#000000" stroke-linecap="round" stroke-linejoin="round" stroke-miterlimit="10" x1="13" y1="173.6" x2="12.4" y2="171.9"/>
	
		<line fill="none" stroke="#000000" stroke-linecap="round" stroke-linejoin="round" stroke-miterlimit="10" x1="16.3" y1="172.3" x2="15.7" y2="170.6"/>
	
		<line fill="none" stroke="#000000" stroke-linecap="round" stroke-linejoin="round" stroke-miterlimit="10" x1="31.2" y1="166.4" x2="30.6" y2="164.7"/>
	
		<line fill="none" stroke="#000000" stroke-linecap="round" stroke-linejoin="round" stroke-miterlimit="10" x1="27.9" y1="167.7" x2="27.2" y2="166"/>
	
		<line fill="none" stroke="#000000" stroke-linecap="round" stroke-linejoin="round" stroke-miterlimit="10" x1="6.2" y1="151.4" x2="14.9" y2="151.8"/>
	
		<line fill="none" stroke="#000000" stroke-linecap="round" stroke-linejoin="round" stroke-miterlimit="10" x1="21" y1="145.5" x2="14.9" y2="151.8"/>
	<path fill="none" stroke="#000000" stroke-linecap="round" stroke-linejoin="round" stroke-miterlimit="10" d="M22.5,153.1
		c1.5-0.4,3.1,0.3,3.9,1.6c0.7,1.1,1.1,2.3,1.4,3.5c0.3,1.5-0.4,3-1.7,3.8c-3.8,2.2-8,3.9-12.3,4.9c-1.5,0.4-3.1-0.3-3.8-1.6
		c-0.7-1.1-1.1-2.3-1.4-3.5c-0.3-1.5,0.4-3.1,1.7-3.8C14.1,155.8,18.2,154.2,22.5,153.1z"/>
</g>
<g opacity="0.1">
	<path fill="none" stroke="#000000" stroke-linecap="round" stroke-linejoin="round" stroke-miterlimit="10" d="M116.3,95.4v1.9
		c0,1.1-0.9,1.9-1.9,1.9h-1.9c-1.1,0-1.9-0.9-1.9-1.9v-1.9"/>
	<path fill="none" stroke="#000000" stroke-linecap="round" stroke-linejoin="round" stroke-miterlimit="10" d="M110.4,91.6h5.8
		c3.2-2.9,7.8-6.4,7.8-11.6c0-5.9-4.8-9.7-10.7-9.7s-10.7,3.8-10.7,9.7C102.7,85.2,107.2,88.6,110.4,91.6z"/>
	<path fill="none" stroke="#000000" stroke-linecap="round" stroke-linejoin="round" stroke-miterlimit="10" d="M114.3,91.6
		c1.5-4.4,3.9-10.4,3.9-13.6c0-4.3-2.2-7.8-4.8-7.8c-2.7,0-4.8,3.5-4.8,7.8c0,3.2,2.4,9.1,3.9,13.6H114.3z"/>
	<path fill="none" stroke="#000000" stroke-linecap="round" stroke-linejoin="round" stroke-miterlimit="10" d="M98.8,76
		c-2.1,0-3.9,1.7-3.9,3.9c-2.1,0-3.9,1.7-3.9,3.9s1.7,3.9,3.9,3.9c2.1,0,5.8,0,5.8,0"/>
</g>
<g opacity="0.1">
	<path fill="none" stroke="#000000" stroke-linecap="round" stroke-linejoin="round" stroke-miterlimit="10" d="M74.6,227.2
		c0,0.3-0.2,0.5-0.5,0.5H73c-0.3,0-0.5-0.2-0.5-0.5v-1.1c0-0.3,0.2-0.5,0.5-0.5h1.1c0.3,0,0.5,0.2,0.5,0.5V227.2z"/>
	
		<line fill="none" stroke="#000000" stroke-linecap="round" stroke-linejoin="round" stroke-miterlimit="10" x1="76.8" y1="226.7" x2="81.1" y2="226.7"/>
	<path fill="none" stroke="#000000" stroke-linecap="round" stroke-linejoin="round" stroke-miterlimit="10" d="M74.6,231.5
		c0,0.3-0.2,0.5-0.5,0.5H73c-0.3,0-0.5-0.2-0.5-0.5v-1.1c0-0.3,0.2-0.5,0.5-0.5h1.1c0.3,0,0.5,0.2,0.5,0.5V231.5z"/>
	
		<line fill="none" stroke="#000000" stroke-linecap="round" stroke-linejoin="round" stroke-miterlimit="10" x1="76.8" y1="231" x2="81.1" y2="231"/>
	<path fill="none" stroke="#000000" stroke-linecap="round" stroke-linejoin="round" stroke-miterlimit="10" d="M83.2,233.2
		c0,1.2-1,2.2-2.2,2.2h-8.6c-1.2,0-2.2-1-2.2-2.2v-8.6c0-1.2,1-2.2,2.2-2.2h8.6c1.2,0,2.2,1,2.2,2.2V233.2z"/>
	<path fill="none" stroke="#000000" stroke-linecap="round" stroke-linejoin="round" stroke-miterlimit="10" d="M70.3,224.6h-1.1
		c-1.2,0-2.2,1-2.2,2.2v9.7c0,1.2,1,2.2,2.2,2.2h9.7c1.2,0,2.2-1,2.2-2.2v-1.1"/>
</g>
<path opacity="0.1" fill="none" stroke="#000000" stroke-linecap="round" stroke-linejoin="round" stroke-miterlimit="10" d="
	M81.9,72.7c0,0-5.7,0.4-7.3-1.5c-0.9-1.1-0.7-2.6,0.4-3.5c0.7-0.6,1.7-0.7,2.6-0.3c-0.2-0.9,0.1-1.8,0.8-2.4
	c1.1-0.9,2.6-0.7,3.5,0.4C83.5,67.2,81.9,72.7,81.9,72.7z"/>
<g opacity="0.1">
	
		<line fill="none" stroke="#000000" stroke-linecap="round" stroke-linejoin="round" stroke-miterlimit="10" x1="256.6" y1="234.2" x2="261.7" y2="231.8"/>
	<polyline fill="none" stroke="#000000" stroke-linecap="round" stroke-linejoin="round" stroke-miterlimit="10" points="
		257.9,230.5 261.7,231.8 260.3,235.5 	"/>
	<path fill="none" stroke="#000000" stroke-linecap="round" stroke-linejoin="round" stroke-miterlimit="10" d="M249,242.4
		c-0.1,0.3-0.3,0.6-0.5,0.8l-2.5,2.1c-0.8,0.7-1.1,1.7-0.9,2.7l0.3,1.5c0,0,2.8,1,9.1-2c6.3-3,7.3-5.8,7.3-5.8l-0.9-1.1
		c-0.6-0.8-1.6-1.2-2.6-1l-3.3,0.5c-0.3,0-0.6,0-0.9-0.1l0,0"/>
	<path fill="none" stroke="#000000" stroke-linecap="round" stroke-linejoin="round" stroke-miterlimit="10" d="M252,231
		c-1.2-2.4-4.1-3.5-6.5-2.3c-2.4,1.2-3.5,4.1-2.3,6.5c1.5,3.1,5.1,6,7.7,4.8C253.4,238.8,253.5,234.1,252,231z"/>
</g>
<g opacity="0.1">
	<polygon fill="none" stroke="#000000" stroke-linecap="round" stroke-linejoin="round" stroke-miterlimit="10" points="41.7,232.2 
		45.5,236 43,236.4 41.3,234.6 	"/>
	<path fill="none" stroke="#000000" stroke-linecap="round" stroke-linejoin="round" stroke-miterlimit="10" d="M40.9,235.2
		l-0.6,0.6c-0.2,0.2-0.2,0.5,0,0.6l0.9,0.9c0.2,0.2,0.5,0.2,0.6,0l0.6-0.6"/>
	<path fill="none" stroke="#000000" stroke-linecap="round" stroke-linejoin="round" stroke-miterlimit="10" d="M44,232.9
		c0.4,0,0.8,0.3,0.8,0.8"/>
	<path fill="none" stroke="#000000" stroke-linecap="round" stroke-linejoin="round" stroke-miterlimit="10" d="M44,231.8
		c1.1,0,1.9,0.9,1.9,1.9"/>
</g>
<g opacity="0.1">
	<path fill="none" stroke="#000000" stroke-linecap="round" stroke-linejoin="round" stroke-miterlimit="10" d="M200.1,207
		c-0.2,0.5-0.7,0.9-1.3,0.9H197c-0.6,0-1.1-0.3-1.3-0.9c-0.6-1.4-0.9-3-0.9-4.5v-0.7c0-0.3,0.3-0.6,0.6-0.6h4.9
		c0.3,0,0.6,0.3,0.6,0.6v0.7C201,204,200.7,205.5,200.1,207z"/>
	<path fill="none" stroke="#000000" stroke-linecap="round" stroke-linejoin="round" stroke-miterlimit="10" d="M201,203.6"/>
	<path fill="none" stroke="#000000" stroke-linecap="round" stroke-linejoin="round" stroke-miterlimit="10" d="M201.9,201.1h0.3
		c0.7,0,1.2,0.5,1.2,1.2s-0.5,1.2-1.2,1.2h-0.3"/>
	<path fill="none" stroke="#000000" stroke-linecap="round" stroke-linejoin="round" stroke-miterlimit="10" d="M197.9,199.9
		c0.2-0.6,0.2-1.2,0-1.8"/>
	<path fill="none" stroke="#000000" stroke-linecap="round" stroke-linejoin="round" stroke-miterlimit="10" d="M196.8,199.9
		C196.8,199.9,196.8,199.9,196.8,199.9c-0.2-0.4-0.2-0.9,0-1.2"/>
	<path fill="none" stroke="#000000" stroke-linecap="round" stroke-linejoin="round" stroke-miterlimit="10" d="M199.1,199.9
		C199.1,199.9,199.1,199.9,199.1,199.9c0.2-0.4,0.2-0.9,0-1.2"/>
</g>
<path opacity="0.1" fill="none" stroke="#000000" stroke-linecap="round" stroke-linejoin="round" stroke-miterlimit="10" d="
	M138,214.6c-0.1,0.1-0.3,0.1-0.5,0l-0.6-0.5l-1.7,0.8v0.8c0,0.2,0.1,0.5,0.3,0.6c0.2,0.2,0.4,0.2,0.7,0.2c1.4-0.2,2.6-0.8,3.6-1.8
	c1-1,1.6-2.2,1.8-3.6c0-0.2,0-0.5-0.2-0.7c-0.2-0.2-0.4-0.3-0.6-0.3h-0.8L139,212l0.5,0.6c0.1,0.1,0.1,0.3,0,0.5
	C139.1,213.7,138.6,214.3,138,214.6z"/>
<g opacity="0.1">
	
		<line fill="none" stroke="#000000" stroke-linecap="round" stroke-linejoin="round" stroke-miterlimit="10" x1="50.7" y1="111.2" x2="45.1" y2="138.4"/>
	
		<line fill="none" stroke="#000000" stroke-linecap="round" stroke-linejoin="round" stroke-miterlimit="10" x1="58.1" y1="111.2" x2="52.5" y2="138.4"/>
	
		<line fill="none" stroke="#000000" stroke-linecap="round" stroke-linejoin="round" stroke-miterlimit="10" x1="41.3" y1="120.2" x2="63.7" y2="120.2"/>
	
		<line fill="none" stroke="#000000" stroke-linecap="round" stroke-linejoin="round" stroke-miterlimit="10" x1="39.4" y1="129.8" x2="61.9" y2="129.8"/>
</g>
<path opacity="0.1" fill="none" stroke="#000000" stroke-linecap="round" stroke-linejoin="round" stroke-miterlimit="10" d="
	M58.4,218.8l-12-8.8l-12,8.7l4.6-13.5l-12-8.1h14.9l4.6-13.8L51,197h14.9l-12,8.1L58.4,218.8z"/>
</svg>
