<?xml version="1.0" encoding="UTF-8" standalone="no"?>
<svg width="308px" height="190px" viewBox="0 0 308 190" version="1.1" xmlns="http://www.w3.org/2000/svg" xmlns:xlink="http://www.w3.org/1999/xlink" xmlns:sketch="http://www.bohemiancoding.com/sketch/ns">
    <!-- Generator: Sketch 3.2.2 (9983) - http://www.bohemiancoding.com/sketch -->
    <title>pictos</title>
    <desc>Created with Sketch.</desc>
    <defs></defs>
    <g id="Page-1" stroke="none" stroke-width="1" fill="none" fill-rule="evenodd" sketch:type="MSPage">
        <g id="pictos" sketch:type="MSArtboardGroup" stroke="#000000">
            <g sketch:type="MSLayerGroup">
                <g id="Group" transform="translate(81.000000, 96.000000)" sketch:type="MSShapeGroup">
                    <path d="M7,2.9 C6.7,1.3 5.2,0.3 3.7,0.6 C2.1,0.9 1.1,2.3 1.4,3.9 C1.8,6 3.4,8.4 5.1,8.1 C6.7,7.9 7.4,5 7,2.9 L7,2.9 Z" id="Shape"></path>
                    <path d="M3.3,9.4 C3.2,9.6 3,9.7 2.8,9.8 L1.3,10.4 C0.6,10.7 0.1,11.4 0.2,12.2 L0.2,13.9 C0.2,13.9 1.7,14.5 6,13.7 C10.3,12.9 11.5,11.8 11.5,11.8 L10.9,10.2 C10.6,9.5 10,9 9.2,8.9 L7.6,8.8 C7.4,8.8 7.2,8.7 7,8.6" id="Shape"></path>
                    <path d="M12.9,3.1 C12.7,1.9 11.6,1.1 10.4,1.3 C9.2,1.5 8.5,2.7 8.7,3.8 C8.9,5.2 10,6.7 11.4,6.4 C12.6,6.3 13.1,4.5 12.9,3.1 L12.9,3.1 Z" id="Shape"></path>
                    <path d="M13.1,7.2 C13.3,7.3 13.5,7.4 13.7,7.5 L14.5,7.7 C15,7.8 15.4,8.1 15.5,8.6 L15.9,9.5 C15.9,9.5 15.1,10.3 13.2,10.7" id="Shape"></path>
                </g>
                <g id="Group" transform="translate(217.000000, 53.000000)" sketch:type="MSShapeGroup">
                    <path d="M10.4,0.8 L10.4,4 L7.5,4" id="Shape"></path>
                    <path d="M10.4,4 C9.7,3.3 8.4,0.7 5.5,0.7 C2.8,0.7 0.6,2.9 0.6,5.6 L0.6,5.9" id="Shape"></path>
                    <path d="M0.7,10.5 L0.7,7.3 L3.6,7.3" id="Shape"></path>
                    <path d="M0.7,7.3 C1.4,8 2.7,10.6 5.6,10.6 C8.3,10.6 10.5,8.4 10.5,5.7 L10.5,5.4" id="Shape"></path>
                </g>
                <path d="M174.1,98.6 C174.2,98.3 174,98.1 173.7,98 L172.5,97.7 C172.4,97.7 172.3,97.6 172.2,97.5 L171.7,96.7 C171.6,96.6 171.5,96.5 171.4,96.5 L170.4,96.3 C170.3,96.3 170.2,96.3 170,96.4 L169.2,96.9 C169.1,97 169,97 168.8,97 L167.6,96.7 C167.3,96.6 167.1,96.8 167,97.1 L166.1,101.2 C166,101.5 166.2,101.7 166.5,101.8 L172.4,103.2 C172.7,103.3 172.9,103.1 173,102.8 L174.1,98.6 L174.1,98.6 Z" id="Shape" sketch:type="MSShapeGroup"></path>
                <circle id="Oval" sketch:type="MSShapeGroup" cx="170.3" cy="99.9" r="1.6"></circle>
                <circle id="Oval" fill="#D9381E" sketch:type="MSShapeGroup" cx="172.7" cy="98.8" r="0.2"></circle>
                <path d="M268.6,77.8 C270.8,78.8 273.3,79.4 275.9,79.4 L275.9,79.4 C284.5,79.4 291.6,73.3 291.6,65.8 C291.6,58.3 284.6,52.2 275.9,52.2 C267.2,52.2 260.2,58.3 260.2,65.8 C260.2,67.3 260.5,68.8 261,70.1 C261.5,71.4 262.3,72.6 263.2,73.8 C265.1,76.2 264.8,80.8 262.3,83.5 C264.8,83.7 267.3,82.9 269.2,81.4" id="Shape" sketch:type="MSShapeGroup"></path>
                <g id="Group" transform="translate(133.000000, 26.000000)" sketch:type="MSShapeGroup">
                    <circle id="Oval" cx="9.1" cy="9.6" r="8.8"></circle>
                    <path d="M22.3,22.8 L17.1,17.7" id="Shape"></path>
                </g>
                <g id="Group" transform="translate(177.000000, 58.000000)" sketch:type="MSShapeGroup">
                    <circle id="Oval" cx="10.8" cy="11" r="10.7"></circle>
                    <path d="M6.9,20.9 C7.5,19 6.9,16.9 5.3,15.7 L4.8,15.3" id="Shape"></path>
                    <path d="M16.2,1.8 C15.6,3.1 14.3,4.1 12.8,4.3 L11.4,4.5 C10.6,4.6 10.1,5.3 10.1,6 C10.1,6.5 10.3,6.9 10.7,7.1 C11.1,7.3 11.6,7.4 12,7.1 L14.1,6.1 C14.6,5.9 15.2,5.9 15.6,6.3 C15.8,6.5 16,6.6 16.2,6.8 C16.9,7.4 17.9,7.5 18.7,7.2 L20.4,6.4" id="Shape"></path>
                    <path d="M4.1,10.3 L4.7,9.7 C5.7,8.8 5.9,7.3 5.3,6.1 C4.8,5.1 4.2,4 3.7,3" id="Shape"></path>
                    <path d="M4.1,10.3 L3.8,10.6 C3.3,11.1 3,11.9 3,12.6 C3,13.4 3.4,14.1 4,14.6 L4.9,15.3" id="Shape"></path>
                    <path d="M12.9,10.3 C15.3,10.3 15.7,11.8 15.7,12.4 C15.7,13.9 14.3,14.3 13.7,15.2 C12.7,16.6 12.9,18.8 12.9,18.8 C12.9,18.8 10.1,16.9 10.1,13.8 C10,10.8 11.8,10.3 12.9,10.3 L12.9,10.3 Z" id="Shape"></path>
                </g>
                <path d="M118.5,96.8 L116.5,98.8 L116,99.3 C115.2,100.1 115.2,101.5 116,102.3 C116.8,103.1 118.2,103.1 119,102.3 L122,99.3 C122.5,98.8 122.5,97.9 122,97.3 C121.5,96.8 120.6,96.8 120,97.3 L117,100.3 C116.7,100.6 116.7,101 117,101.3 C117.3,101.6 117.7,101.6 118,101.3 L120.1,99.2" id="Shape" sketch:type="MSShapeGroup"></path>
                <g id="Group" transform="translate(114.000000, 116.000000)" sketch:type="MSShapeGroup">
                    <circle id="Oval" cx="12.1" cy="11.5" r="3.7"></circle>
                    <path d="M22.7,13.1 C23.1,13 23.3,12.7 23.3,12.4 L23.3,10.6 C23.3,10.2 23,9.9 22.7,9.9 L20.5,9.4 C20.2,9.4 20,9.2 19.9,8.9 C19.8,8.5 19.6,8.1 19.4,7.8 C19.3,7.6 19.3,7.3 19.4,7 L20.7,5.1 C20.9,4.8 20.9,4.4 20.6,4.2 L19.4,3 C19.1,2.7 18.8,2.7 18.5,2.9 L16.6,4.2 C16.4,4.3 16.1,4.4 15.8,4.2 C15.4,4 15,3.9 14.7,3.7 C14.4,3.6 14.2,3.4 14.2,3.1 L13.7,0.9 C13.6,0.5 13.3,0.3 13,0.3 L11.2,0.3 C10.8,0.3 10.5,0.6 10.5,0.9 L10,3.1 C10,3.4 9.8,3.6 9.5,3.7 C9.1,3.8 8.7,4 8.4,4.2 C8.2,4.3 7.9,4.3 7.6,4.2 L5.7,2.9 C5.4,2.7 5,2.7 4.8,3 L3.6,4.2 C3.3,4.5 3.3,4.8 3.5,5.1 L4.5,6.6 C4.8,7 4.8,7.6 4.6,8 C4.5,8.3 4.4,8.5 4.3,8.8 C4.2,9.1 4,9.3 3.7,9.3 L1.5,9.8 C1.1,9.9 0.9,10.2 0.9,10.5 L0.9,12.3 C0.9,12.7 1.2,13 1.5,13 L3.7,13.5 C4,13.5 4.2,13.7 4.3,14 C4.4,14.4 4.6,14.8 4.8,15.1 C4.9,15.3 4.9,15.6 4.8,15.9 L3.5,17.8 C3.3,18.1 3.3,18.5 3.6,18.7 L4.8,19.9 C5.1,20.2 5.4,20.2 5.7,20 L7.6,18.7 C7.8,18.6 8.1,18.5 8.4,18.7 C8.8,18.9 9.2,19 9.5,19.2 C9.8,19.3 10,19.5 10,19.8 L10.5,22 C10.6,22.4 10.9,22.6 11.2,22.6 L13,22.6 C13.4,22.6 13.7,22.3 13.7,22 L14.2,19.8 C14.2,19.5 14.4,19.3 14.7,19.2 C15.1,19.1 15.5,18.9 15.8,18.7 C16,18.6 16.3,18.6 16.6,18.7 L18.5,20 C18.8,20.2 19.2,20.2 19.4,19.9 L20.6,18.7 C20.9,18.4 20.9,18.1 20.7,17.8 L19.4,15.9 C19.3,15.7 19.2,15.4 19.4,15.1 C19.6,14.7 19.7,14.3 19.9,14 C20,13.7 20.2,13.5 20.5,13.5 L22.7,13.1 L22.7,13.1 Z" id="Shape"></path>
                </g>
                <path d="M212.4,156.6 L213.9,168 L225.2,170 L214.9,175 L216.3,186.3 L208.5,178 L198.2,182.9 L203.6,172.9 L195.7,164.6 L207,166.7 L212.4,156.6 Z" id="Shape" sketch:type="MSShapeGroup"></path>
                <g id="Group" transform="translate(7.000000, 48.000000)" sketch:type="MSShapeGroup">
                    <g id="Shape">
                        <path d="M8.8,0.8 C8,0.4 7,0.1 6,0.1 C5,0.1 4.1,0.3 3.2,0.8"></path>
                        <path d="M11.3,8.9 C11.7,8.1 12,7.1 12,6.1 C12,5.1 11.8,4.2 11.3,3.3"></path>
                        <path d="M0.7,3.3 C0.3,4.1 0,5.1 0,6.1 C0,7.1 0.2,8 0.7,8.9"></path>
                        <path d="M3.2,11.4 C4,11.8 5,12.1 6,12.1 C7,12.1 7.9,11.9 8.8,11.4"></path>
                    </g>
                    <g id="Shape">
                        <path d="M4.6,2.8 L3.2,0.8 C3.1,0.6 2.9,0.5 2.7,0.5 C2.5,0.5 2.3,0.5 2.1,0.6 C1.8,0.8 1.5,1.1 1.2,1.3 C0.9,1.6 0.7,1.9 0.5,2.2 C0.4,2.4 0.3,2.6 0.4,2.8 C0.4,3 0.6,3.2 0.7,3.3 L2.7,4.7"></path>
                        <path d="M9.3,4.7 L11.3,3.3 C11.5,3.2 11.6,3 11.6,2.8 C11.6,2.6 11.6,2.4 11.5,2.2 C11.3,1.9 11,1.6 10.8,1.3 C10.5,1 10.2,0.8 9.9,0.6 C9.7,0.5 9.5,0.4 9.3,0.5 C9.1,0.5 8.9,0.7 8.8,0.8 L7.4,2.8"></path>
                        <path d="M7.4,9.4 L8.8,11.4 C8.9,11.6 9.1,11.7 9.3,11.7 C9.5,11.7 9.7,11.7 9.9,11.6 C10.2,11.4 10.5,11.1 10.8,10.9 C11.1,10.6 11.3,10.3 11.5,10 C11.6,9.8 11.7,9.6 11.6,9.4 C11.6,9.2 11.4,9 11.3,8.9 L9.3,7.5"></path>
                        <path d="M2.7,7.5 L0.7,8.9 C0.5,9 0.4,9.2 0.4,9.4 C0.4,9.6 0.4,9.8 0.5,10 C0.7,10.3 1,10.6 1.2,10.9 C1.5,11.2 1.8,11.4 2.1,11.6 C2.3,11.7 2.5,11.8 2.7,11.7 C2.9,11.7 3.1,11.5 3.2,11.4 L4.6,9.4"></path>
                    </g>
                    <circle id="Oval" cx="6" cy="6.1" r="3.6"></circle>
                </g>
                <g id="Group" transform="translate(97.000000, 156.000000)" sketch:type="MSShapeGroup">
                    <path d="M22.7,2.9 C22.2,1.3 20.5,0.3 18.9,0.7 L2.5,5.2 C0.9,5.7 -0.1,7.4 0.3,9 L4,22.4 C4.5,24 6.2,25 7.8,24.6 L24.2,20.1 C25.8,19.6 26.8,17.9 26.4,16.3 L22.7,2.9 L22.7,2.9 Z" id="Shape"></path>
                    <path d="M3.3,8.2 L13.7,14.2 L19.7,3.7" id="Shape"></path>
                </g>
                <g id="Group" transform="translate(5.000000, 166.000000)" sketch:type="MSShapeGroup">
                    <path d="M3.8,10.5 L7.8,16.9 C8.1,17.4 8.8,17.6 9.3,17.2 L15.7,13.2 C16.2,12.9 16.4,12.2 16,11.7 L12,5.3" id="Shape"></path>
                    <path d="M11.8,2.9 L1.8,9.2 L0.6,7.4 C0.3,6.9 0.4,6.2 0.9,5.9 L9.1,0.7 C9.6,0.4 10.3,0.5 10.6,1 L11.8,2.9 L11.8,2.9 Z" id="Shape"></path>
                    <path d="M6.6,8.7 L10,14.2" id="Shape"></path>
                    <path d="M9.3,7 L12.8,12.5" id="Shape"></path>
                    <path d="M3.7,4.2 L3.4,3.7 C2.9,2.9 3.1,1.9 3.9,1.5 C4.7,1 5.7,1.2 6.1,2 L6.4,2.5" id="Shape"></path>
                </g>
                <g id="Group" transform="translate(217.000000, 84.000000)" sketch:type="MSShapeGroup">
                    <circle id="Oval" cx="15.3" cy="16.4" r="11"></circle>
                    <path d="M7,5 C6,4.6 4.9,4.6 3.8,4.9 C1.1,5.7 -0.4,8.6 0.4,11.2 C0.6,12 1.1,12.6 1.6,13.2" id="Shape"></path>
                    <path d="M15.8,2.3 C16.4,1.4 17.3,0.8 18.4,0.4 C21.1,-0.4 23.9,1.1 24.7,3.8 C24.9,4.6 25,5.4 24.8,6.1" id="Shape"></path>
                    <path d="M11.5,18.5 L16.4,17 L14.4,10.5" id="Shape"></path>
                    <path d="M9.7,29.7 L11.3,26.6" id="Shape"></path>
                    <path d="M27.5,24.2 L24.4,22.6" id="Shape"></path>
                </g>
                <g id="Group" transform="translate(148.000000, 157.000000)" sketch:type="MSShapeGroup">
                    <path d="M2.7,13.5 L9.8,16.2 C9.3,17.6 10,19.2 11.4,19.8 C12.8,20.3 14.4,19.6 15,18.2 L22.1,20.9 L26.5,9.2 C26.8,8.5 26.4,7.7 25.7,7.4 L8.8,1.1 C8.1,0.8 7.3,1.2 7,1.9 L2.7,13.5 L2.7,13.5 Z" id="Shape"></path>
                    <path d="M21.2,23.4 L20.2,26 C19.9,26.7 19.1,27.1 18.4,26.8 L1.5,20.5 C0.8,20.2 0.4,19.4 0.7,18.7 L1.7,16.1" id="Shape"></path>
                    <path d="M10,5.8 L21.7,10.2" id="Shape"></path>
                    <path d="M9,8.4 L20.7,12.8" id="Shape"></path>
                    <path d="M8,11 L19.7,15.4" id="Shape"></path>
                </g>
                <g id="Group" transform="translate(244.000000, 6.000000)" sketch:type="MSShapeGroup">
                    <path d="M28.7,23.8 C29.3,22.9 29.1,21.7 28.2,21.1 L10.3,8.8 C9.4,8.2 8.2,8.4 7.6,9.3 L0.9,19 C0.3,19.9 0.5,21.1 1.4,21.7 L19.3,34 C20.2,34.6 21.4,34.4 22,33.5 L28.7,23.8 L28.7,23.8 Z" id="Shape"></path>
                    <path d="M11.9,9.8 L15.8,4.1 C18.6,0.1 24.1,-1 28.1,1.8 C32.1,4.6 33.2,10.1 30.4,14.1 L26.5,19.8" id="Shape"></path>
                    <path d="M17.4,8.8 L19.1,6.4 C20.6,4.2 23.7,3.6 26,5.1 C28.2,6.6 28.8,9.7 27.3,12 L25.6,14.4" id="Shape"></path>
                </g>
                <path d="M250.5,123.4 C243.5,130.4 238.3,137.3 233.3,145.8 C230.7,143.2 227.8,140.9 224.7,138.9" id="Shape" sketch:type="MSShapeGroup"></path>
                <g id="Group" transform="translate(243.000000, 57.000000)" sketch:type="MSShapeGroup">
                    <g id="Shape">
                        <path d="M2.2,4.9 L6.5,0.6 C7.1,-2.13162821e-14 8,-2.13162821e-14 8.6,0.6 C9.2,1.2 9.2,2.1 8.6,2.6 L4.2,7"></path>
                        <path d="M1.4,5.7 L0.2,9 L3.4,7.8"></path>
                    </g>
                    <path d="M1.4,5.7 C2.4,5.9 3.2,6.7 3.5,7.8" id="Shape"></path>
                </g>
                <g id="Group" transform="translate(186.000000, 95.000000)" sketch:type="MSShapeGroup">
                    <path d="M6.4,17.6 L3.5,24.4" id="Shape"></path>
                    <path d="M13.6,18 L14.6,15.7 C15.1,14.4 15.2,13 14.7,11.7 L14.4,10.9 C13.9,9.6 13.9,8.2 14.5,6.9 L15.7,4.1 C16,3.4 15.7,2.7 15,2.4 L10.6,0.5 C9.9,0.2 9.2,0.5 8.9,1.2 L7.7,4 C7.2,5.3 6.1,6.3 4.8,6.8 L4,7.1 C2.7,7.6 1.7,8.6 1.1,9.9 L0.1,12.2 L13.6,18 L13.6,18 Z" id="Shape"></path>
                </g>
                <g id="Group" transform="translate(149.000000, 4.000000)" sketch:type="MSShapeGroup">
                    <path d="M7.9,8.4 L9.7,8.7 L10.4,5.1 C10.5,4.4 10.1,3.8 9.4,3.7 L2.8,2.5 C2.1,2.4 1.5,2.8 1.4,3.5 L0.7,7.1 L2.5,7.4" id="Shape"></path>
                    <path d="M3.6,1.4 L3.8,0.2 L9.3,1.2 L9,2.4" id="Shape"></path>
                    <rect id="Rectangle-path" stroke-width="0.999988525" transform="translate(5.241145, 7.854535) rotate(10.387355) translate(-5.241145, -7.854535) " x="2.49117656" y="6.00455623" width="5.49993689" height="3.69995754"></rect>
                    <path d="M2.2,5.5 L8.9,6.7" id="Shape"></path>
                </g>
                <g id="Group" transform="translate(126.000000, 60.000000)" sketch:type="MSShapeGroup">
                    <path d="M21.6,34.4 C20.1,35.9 17.7,35.9 16.2,34.4 L1.3,19.5 C-0.2,18 -0.2,15.6 1.3,14.1 L13.5,1.9 C15,0.4 17.4,0.4 18.9,1.9 L33.8,16.8 C35.3,18.3 35.3,20.7 33.8,22.2 L21.6,34.4 L21.6,34.4 Z" id="Shape"></path>
                    <path d="M3.9,16.7 L14.8,16.7 L14.8,22.2" id="Shape"></path>
                    <path d="M9.4,22.2 L22.9,22.2 L22.9,27.6" id="Shape"></path>
                    <circle id="Oval" cx="16.1" cy="10" r="1.9"></circle>
                </g>
                <g id="Group" transform="translate(9.000000, 5.000000)" sketch:type="MSShapeGroup">
                    <path d="M4.1,1.7 C4.2,0.7 5.2,1.73194792e-14 6.2,0.2 L29.7,3.6 C30.7,3.7 31.4,4.7 31.2,5.7 L30.4,11.1 L3.3,7.1 L4.1,1.7 L4.1,1.7 Z" id="Shape"></path>
                    <path d="M29.9,14.7 L27.8,29.1 C27.7,30.1 26.7,30.8 25.7,30.6 L2.2,27.2 C1.2,27.1 0.5,26.1 0.7,25.1 L2.8,10.7" id="Shape"></path>
                    <path d="M7.9,13.3 L7.7,15.1" id="Shape"></path>
                    <path d="M18.8,14.9 L18.5,16.7" id="Shape"></path>
                    <path d="M24.2,15.7 L23.9,17.5" id="Shape"></path>
                    <path d="M6.9,20.6 L6.6,22.4" id="Shape"></path>
                    <path d="M12.3,21.4 L12,23.2" id="Shape"></path>
                    <path d="M17.7,22.2 L17.4,24" id="Shape"></path>
                    <path d="M23.1,23 L22.8,24.8" id="Shape"></path>
                    <path d="M14.9,16.2 C14.8,17.2 13.8,17.9 12.8,17.7 C11.8,17.6 11.1,16.6 11.3,15.6 L11.6,13.8 C11.7,12.8 12.7,12.1 13.7,12.3 C14.7,12.4 15.4,13.4 15.2,14.4 L14.9,16.2 L14.9,16.2 Z" id="Shape"></path>
                </g>
                <g id="Group" transform="translate(57.000000, 28.000000)" sketch:type="MSShapeGroup">
                    <path d="M3.7,0.8 L3.7,7" id="Shape"></path>
                    <path d="M0.6,3.9 L6.8,3.9" id="Shape"></path>
                </g>
                <g id="Group" transform="translate(266.000000, 139.000000)" sketch:type="MSShapeGroup">
                    <path d="M11.5,9.3 L33.5,17.9 C34.2,18.2 34.8,18.7 35,19.4 C35.3,20.1 35.2,20.9 34.9,21.6 L30.8,29.5 C29.6,31.7 27.1,32.8 24.7,32.1 L8.4,27.5 C6,26.8 4.4,24.6 4.6,22.1 L5.8,4.2 C5.9,3 5.1,1.8 3.9,1.5 L0.3,0.5" id="Shape"></path>
                    <circle id="Oval" cx="6.9" cy="35.4" r="2.6"></circle>
                    <circle id="Oval" cx="22.3" cy="39.7" r="2.6"></circle>
                </g>
                <g id="Group" transform="translate(202.000000, 0.000000)" sketch:type="MSShapeGroup">
                    <path d="M2.7,18.8 L2.7,30.7" id="Shape"></path>
                    <path d="M10.7,18.8 L10.7,30.7" id="Shape"></path>
                    <path d="M6.7,18.8 L6.7,30.7" id="Shape"></path>
                    <path d="M20.6,18.8 L20.6,30.7" id="Shape"></path>
                    <path d="M16.6,18.8 L16.6,30.7" id="Shape"></path>
                    <path d="M24.6,18.8 L24.6,30.7" id="Shape"></path>
                    <path d="M0.7,6.9 L6.7,6.9" id="Shape"></path>
                    <path d="M20.6,6.9 L26.5,6.9" id="Shape"></path>
                    <path d="M10.7,0.9 L13.6,3.9 L16.6,0.9" id="Shape"></path>
                    <path d="M16.6,6.9 L16.6,8.9 C16.6,10 17.5,10.9 18.6,10.9 L26.5,10.9 L26.5,14.9 L0.7,14.9 L0.7,10.9 L8.6,10.9 C9.7,10.9 10.6,10 10.6,8.9 L10.6,6.9 L16.6,6.9" id="Shape"></path>
                </g>
                <g id="Group" transform="translate(287.000000, 31.000000)" sketch:type="MSShapeGroup">
                    <path d="M2.9,5 L2.3,6.4 L0.9,7.1 L2.3,7.8 L2.9,9.2 L3.6,7.8 L5,7.1 L3.6,6.4 L2.9,5 Z" id="Shape"></path>
                    <path d="M8.5,5.7 L7.8,7.8 L5.7,8.5 L7.8,9.2 L8.5,11.2 L9.2,9.2 L11.2,8.5 L9.2,7.8 L8.5,5.7 Z" id="Shape"></path>
                    <path d="M6.4,0.9 L5.7,2.9 L3.6,3.6 L5.7,4.3 L6.4,6.4 L7.1,4.3 L9.2,3.6 L7.1,2.9 L6.4,0.9 Z" id="Shape"></path>
                </g>
                <g id="Group" transform="translate(73.000000, 123.000000)" sketch:type="MSShapeGroup">
                    <path id="Shape"></path>
                    <path d="M7.9,4.8 L8.8,3.9 C9.4,3.3 10.5,3.3 11.1,3.9 C11.3,4.1 11.4,4.2 11.6,4.4 C12.2,5 13.3,5 13.9,4.4 L16.8,1.5 C17.9,0.4 19.6,0.4 20.6,1.5 C21.7,2.6 21.7,4.3 20.6,5.3 L17.7,8.2 C17.1,8.8 17.1,9.9 17.7,10.5 L18.2,11 C18.8,11.6 18.8,12.7 18.2,13.3 L17.3,14.2" id="Shape"></path>
                    <path d="M7.2,11.6 L4.2,14.6" id="Shape"></path>
                    <path d="M10.6,15 L7.6,18" id="Shape"></path>
                    <path d="M6.6,6.1 C4.8,7.9 2.7,9.5 0.5,10.9 L11.4,21.8 C12.7,19.6 14.3,17.5 16.1,15.7 L6.6,6.1 L6.6,6.1 Z" id="Shape"></path>
                </g>
                <g id="Group" transform="translate(83.000000, 54.000000)" sketch:type="MSShapeGroup">
                    <path d="M18.8,0.6 C20.8,0.4 22.8,1.4 23.9,3.1 C26.8,7.9 28.6,13.3 29.2,18.9 C29.4,20.9 28.4,22.9 26.7,24 C21.9,26.9 16.5,28.7 10.9,29.3 C8.9,29.5 6.9,28.5 5.8,26.8 C2.9,22 1.1,16.6 0.5,11 C0.3,9 1.3,7 3,5.9 C7.8,3 13.2,1.2 18.8,0.6 L18.8,0.6 Z" id="Shape"></path>
                    <path d="M12,20.6 C15.1,22 18.8,20.8 20.4,17.8" id="Shape"></path>
                    <circle id="Oval" cx="8.1" cy="17.2" r="0.9"></circle>
                    <circle id="Oval" cx="21.5" cy="12.7" r="0.9"></circle>
                </g>
                <g id="Group" transform="translate(2.000000, 135.000000)" sketch:type="MSShapeGroup">
                    <path d="M8.2,3.6 C8.7,2.6 8.3,1.4 7.3,0.9 C6.3,0.4 5.1,0.8 4.6,1.8 C4,3 4,5 5,5.5 C6,6 7.6,4.9 8.2,3.6 L8.2,3.6 Z" id="Shape"></path>
                    <path d="M7.4,4.8 C8.1,4 7.9,3.4 7.4,2.9 C7.1,2.5 6.9,2.1 7.1,1.6 C6.9,2 6.4,2.1 5.9,2.1 C5.2,2 4.6,2.2 4.3,3.2" id="Shape"></path>
                    <path d="M4.7,1.8 C4.1,2.9 3.2,3.6 3.2,3.6 L4.3,4.5" id="Shape"></path>
                    <path d="M8.2,3.6 C7.6,4.7 7.7,5.9 7.7,5.9 L6.3,5.5" id="Shape"></path>
                    <path d="M3.8,5.5 L3.4,5.5 L2.1,5.2 C1.7,5.1 1.3,5.3 1,5.6 L0.6,6.1 C0.6,6.1 1,7.2 3.5,8.5 C6,9.8 7.2,9.4 7.2,9.4 L7.3,8.8 C7.4,8.4 7.3,8 7,7.7 L6,6.8 C5.9,6.7 5.8,6.6 5.8,6.5 L5.8,6.5" id="Shape"></path>
                </g>
                <g id="Group" transform="translate(168.000000, 14.000000)" sketch:type="MSShapeGroup">
                    <path d="M18.3,0.2 C15.6,6.6 14,12.5 12.9,19.3 C10.5,18.3 8,17.5 5.5,17" id="Shape"></path>
                    <path d="M13.6,4.7 L2.4,9.2 C1.2,9.7 0.6,11.1 1,12.4 L6,24.8 C6.5,26 7.9,26.6 9.2,26.2 L21.6,21.2 C22.8,20.7 23.4,19.3 23,18 L18.7,7.3" id="Shape"></path>
                </g>
                <g id="Group" transform="translate(43.000000, 91.000000)" sketch:type="MSShapeGroup">
                    <path d="M13.7,5 C14.5,3.2 13.6,1.1 11.8,0.3 C10,-0.5 7.9,0.4 7.1,2.2 C6.7,3.1 5.6,5.8 5.3,6.6 C4.5,8.4 5.4,10.5 7.2,11.3 C9,12.1 11.1,11.2 11.9,9.4 C12.3,8.6 13.4,5.9 13.7,5 L13.7,5 Z" id="Shape"></path>
                    <path d="M14.6,9.3 L14.1,10.4 C12.8,13.5 9.3,14.9 6.3,13.7 C3.2,12.4 1.8,8.9 3,5.9 L3.5,4.8" id="Shape"></path>
                    <path d="M0.5,15.1 L9.3,18.8" id="Shape"></path>
                    <path d="M6.3,13.7 L4.9,17" id="Shape"></path>
                </g>
                <path d="M182.6,39.4 L182.6,40" id="Shape" sketch:type="MSShapeGroup"></path>
                <g id="Group" transform="translate(278.000000, 93.000000)" sketch:type="MSShapeGroup">
                    <path d="M27.5,27.2 C27.5,27.2 24,20.3 14.9,20.3 C5.8,20.3 2.3,27.1 2.3,27.1" id="Shape"></path>
                    <path d="M1.4,26.7 C2.3,27.6 4.1,27.6 4.1,27.6 C4.1,27.6 5.9,27.6 6.8,26.7 C7.7,27.6 9.5,27.6 9.5,27.6 C9.5,27.6 11.3,27.6 12.2,26.7 C13.1,27.6 14.9,27.6 14.9,27.6 C14.9,27.6 16.7,27.6 17.6,26.7 C18.5,27.6 20.3,27.6 20.3,27.6 C20.3,27.6 22.1,27.6 23,26.7 C23.9,27.6 25.7,27.6 25.7,27.6 C25.7,27.6 27.5,27.6 28.4,26.7" id="Shape"></path>
                    <path d="M12.1,21.9 L9.8,13.1" id="Shape"></path>
                    <path d="M18,9.1 C18,9.1 16.9,8.8 15.4,9.8 C13.9,10.8 13.2,12.2 13.2,12.2 C13.2,12.2 11.6,11.7 9.5,12.3 C7.4,12.9 6.2,14.1 6.2,14.1 C6.2,14.1 4.5,13.1 3.1,13.1 C1.7,13 0.5,13.8 0.5,13.8 C-0.2,11.3 2.2,5.9 7.3,4.5 C12.6,3.1 17.4,6.5 18,9.1 L18,9.1 Z" id="Shape"></path>
                    <path d="M7.5,4.4 C7.5,4.4 4.4,6.9 6.4,14" id="Shape"></path>
                    <path d="M13.3,12.2 C11.4,5.1 7.5,4.4 7.5,4.4" id="Shape"></path>
                    <circle id="Oval" cx="22.1" cy="5.9" r="1.8"></circle>
                    <path d="M22.1,11.3 L22.1,13.1" id="Shape"></path>
                    <path d="M29.3,5.9 L27.5,5.9" id="Shape"></path>
                    <path d="M18.3,2.1 L17,0.8" id="Shape"></path>
                    <path d="M27.2,11 L25.9,9.8" id="Shape"></path>
                    <path d="M27.2,0.8 L25.9,2.1" id="Shape"></path>
                </g>
                <g id="Group" transform="translate(159.000000, 124.000000)" sketch:type="MSShapeGroup">
                    <path d="M4.4,11.4 C4.8,12.2 5.7,12.5 6.4,12.2 L14.1,8.7 C14.9,8.3 15.2,7.4 14.9,6.7 L12,0.4 L1.5,5.2 C1.5,5.1 3.8,10 4.4,11.4 L4.4,11.4 Z" id="Shape"></path>
                    <path d="M0.9,3.7 L0.6,3 C0.4,2.6 0.6,2.2 1,2 L5.2,0.1 C5.6,-0.1 6,0.1 6.2,0.5 L6.5,1.2" id="Shape"></path>
                </g>
                <g id="Group" transform="translate(289.000000, 3.000000)" sketch:type="MSShapeGroup">
                    <path d="M14.2,9.3 C14.1,9.1 13.8,9 13.6,9 L13.1,9 L14.2,6.7 C14.7,5.6 14.2,4.3 13.2,3.8 L6.3,0.6 C5.3,0.1 4.1,0.6 3.6,1.6 L0.4,8.5 C-0.1,9.6 0.4,10.9 1.4,11.4 L8.2,14.6 C9.3,15.1 10.6,14.6 11.1,13.6 L12.2,11.3 L12.5,11.7 C12.7,11.9 12.9,12 13.2,12 C13.5,12 13.7,11.8 13.8,11.6 L14.4,10.2 C14.4,9.8 14.3,9.5 14.2,9.3 L14.2,9.3 Z" id="Shape"></path>
                    <circle id="Oval" cx="7.1" cy="7.5" r="4.3"></circle>
                    <path d="M9.7,6.6 L6.8,6.5 L4.5,8.5 L7.5,8.6 L9.7,6.6 Z" id="Shape"></path>
                    <circle id="Oval" cx="5.4" cy="2.8" r="0.7"></circle>
                    <path d="M6.8,6.5 L7.5,8.6" id="Shape"></path>
                </g>
                <g id="Group" transform="translate(0.000000, 85.000000)" sketch:type="MSShapeGroup">
                    <path d="M31.5,20 C32.2,21.8 31.3,23.9 29.5,24.6 L11.3,31.8 C9.5,32.5 7.4,31.6 6.7,29.8 L0.8,15 C0.1,13.2 1,11.1 2.8,10.4 L21,3.2 C22.8,2.5 24.9,3.4 25.6,5.2 L31.5,20 L31.5,20 Z" id="Shape"></path>
                    <path d="M10,28.6 L9.4,26.9" id="Shape"></path>
                    <path d="M13.3,27.3 L12.7,25.6" id="Shape"></path>
                    <path d="M28.2,21.4 L27.6,19.7" id="Shape"></path>
                    <path d="M24.9,22.7 L24.2,21" id="Shape"></path>
                    <path d="M3.2,6.4 L11.9,6.8" id="Shape"></path>
                    <path d="M18,0.5 L11.9,6.8" id="Shape"></path>
                    <path d="M19.5,8.1 C21,7.7 22.6,8.4 23.4,9.7 C24.1,10.8 24.5,12 24.8,13.2 C25.1,14.7 24.4,16.2 23.1,17 C19.3,19.2 15.1,20.9 10.8,21.9 C9.3,22.3 7.7,21.6 7,20.3 C6.3,19.2 5.9,18 5.6,16.8 C5.3,15.3 6,13.7 7.3,13 C11.1,10.8 15.2,9.2 19.5,8.1 L19.5,8.1 Z" id="Shape"></path>
                </g>
                <g id="Group" transform="translate(87.000000, 10.000000)" sketch:type="MSShapeGroup">
                    <path d="M26.3,25.4 L26.3,27.3 C26.3,28.4 25.4,29.2 24.4,29.2 L22.5,29.2 C21.4,29.2 20.6,28.3 20.6,27.3 L20.6,25.4" id="Shape"></path>
                    <path d="M20.4,21.6 L26.2,21.6 C29.4,18.7 34,15.2 34,10 C34,4.1 29.2,0.3 23.3,0.3 C17.4,0.3 12.6,4.1 12.6,10 C12.7,15.2 17.2,18.6 20.4,21.6 L20.4,21.6 Z" id="Shape"></path>
                    <path d="M24.3,21.6 C25.8,17.2 28.2,11.2 28.2,8 C28.2,3.7 26,0.2 23.4,0.2 C20.7,0.2 18.6,3.7 18.6,8 C18.6,11.2 21,17.1 22.5,21.6 L24.3,21.6 L24.3,21.6 Z" id="Shape"></path>
                    <path d="M8.8,6 C6.7,6 4.9,7.7 4.9,9.9 C2.8,9.9 1,11.6 1,13.8 C1,16 2.7,17.7 4.9,17.7 L10.7,17.7" id="Shape"></path>
                </g>
                <g id="Group" transform="translate(64.000000, 162.000000)" sketch:type="MSShapeGroup">
                    <path d="M7.6,5.2 C7.6,5.5 7.4,5.7 7.1,5.7 L6,5.7 C5.7,5.7 5.5,5.5 5.5,5.2 L5.5,4.1 C5.5,3.8 5.7,3.6 6,3.6 L7.1,3.6 C7.4,3.6 7.6,3.8 7.6,4.1 L7.6,5.2 L7.6,5.2 Z" id="Shape"></path>
                    <path d="M9.8,4.7 L14.1,4.7" id="Shape"></path>
                    <path d="M7.6,9.5 C7.6,9.8 7.4,10 7.1,10 L6,10 C5.7,10 5.5,9.8 5.5,9.5 L5.5,8.4 C5.5,8.1 5.7,7.9 6,7.9 L7.1,7.9 C7.4,7.9 7.6,8.1 7.6,8.4 L7.6,9.5 L7.6,9.5 Z" id="Shape"></path>
                    <path d="M9.8,9 L14.1,9" id="Shape"></path>
                    <path d="M16.2,11.2 C16.2,12.4 15.2,13.4 14,13.4 L5.4,13.4 C4.2,13.4 3.2,12.4 3.2,11.2 L3.2,2.6 C3.2,1.4 4.2,0.4 5.4,0.4 L14,0.4 C15.2,0.4 16.2,1.4 16.2,2.6 L16.2,11.2 L16.2,11.2 Z" id="Shape"></path>
                    <path d="M3.3,2.6 L2.2,2.6 C1,2.6 0,3.6 0,4.8 L0,14.5 C0,15.7 1,16.7 2.2,16.7 L11.9,16.7 C13.1,16.7 14.1,15.7 14.1,14.5 L14.1,13.4" id="Shape"></path>
                </g>
                <path d="M78.9,12.7 C78.9,12.7 73.2,13.1 71.6,11.2 C70.7,10.1 70.9,8.6 72,7.7 C72.7,7.1 73.7,7 74.6,7.4 C74.4,6.5 74.7,5.6 75.4,5 C76.5,4.1 78,4.3 78.9,5.4 C80.5,7.2 78.9,12.7 78.9,12.7 L78.9,12.7 Z" id="Shape" sketch:type="MSShapeGroup"></path>
                <g id="Group" transform="translate(239.000000, 168.000000)" sketch:type="MSShapeGroup">
                    <path d="M14.6,6.2 L19.7,3.8" id="Shape"></path>
                    <path d="M15.9,2.5 L19.7,3.8 L18.3,7.5" id="Shape"></path>
                    <path d="M7,14.4 C6.9,14.7 6.7,15 6.5,15.2 L4,17.3 C3.2,18 2.9,19 3.1,20 L3.4,21.5 C3.4,21.5 6.2,22.5 12.5,19.5 C18.8,16.5 19.8,13.7 19.8,13.7 L18.9,12.6 C18.3,11.8 17.3,11.4 16.3,11.6 L13,12.1 C12.7,12.1 12.4,12.1 12.1,12 L12.1,12" id="Shape"></path>
                    <path d="M10,3 C8.8,0.6 5.9,-0.5 3.5,0.7 C1.1,1.9 -1.50990331e-14,4.8 1.2,7.2 C2.7,10.3 6.3,13.2 8.9,12 C11.4,10.8 11.5,6.1 10,3 L10,3 Z" id="Shape"></path>
                </g>
                <g id="Group" transform="translate(37.000000, 171.000000)" sketch:type="MSShapeGroup">
                    <path d="M1.7,1.2 L5.5,5 L3,5.4 L1.3,3.6 L1.7,1.2 Z" id="Shape"></path>
                    <path d="M0.9,4.2 L0.3,4.8 C0.1,5 0.1,5.3 0.3,5.4 L1.2,6.3 C1.4,6.5 1.7,6.5 1.8,6.3 L2.4,5.7" id="Shape"></path>
                    <path d="M4,1.9 C4.4,1.9 4.8,2.2 4.8,2.7" id="Shape"></path>
                    <path d="M4,0.8 C5.1,0.8 5.9,1.7 5.9,2.7" id="Shape"></path>
                </g>
                <g id="Group" transform="translate(191.000000, 138.000000)" sketch:type="MSShapeGroup">
                    <path d="M6.1,9 C5.9,9.5 5.4,9.9 4.8,9.9 L3,9.9 C2.4,9.9 1.9,9.6 1.7,9 C1.1,7.6 0.8,6 0.8,4.5 L0.8,3.8 C0.8,3.5 1.1,3.2 1.4,3.2 L6.3,3.2 C6.6,3.2 6.9,3.5 6.9,3.8 L6.9,4.5 C7,6 6.7,7.5 6.1,9 L6.1,9 Z" id="Shape"></path>
                    <path d="M7.9,3.1 L8.2,3.1 C8.9,3.1 9.4,3.6 9.4,4.3 C9.4,5 8.9,5.5 8.2,5.5 L7.9,5.5" id="Shape"></path>
                    <path id="Shape" d="M3.9,1.9 C4.1,1.3 4.1,0.7 3.9,0.1"></path>
                    <path id="Shape" d="M2.8,1.9 L2.8,1.9 C2.6,1.5 2.6,1 2.8,0.7"></path>
                    <path id="Shape" d="M5.1,1.9 L5.1,1.9 C5.3,1.5 5.3,1 5.1,0.7"></path>
                </g>
                <path d="M135,154.6 C134.9,154.7 134.7,154.7 134.5,154.6 L133.9,154.1 L132.2,154.9 L132.2,155.7 C132.2,155.9 132.3,156.2 132.5,156.3 C132.7,156.5 132.9,156.5 133.2,156.5 C134.6,156.3 135.8,155.7 136.8,154.7 C137.8,153.7 138.4,152.5 138.6,151.1 C138.6,150.9 138.6,150.6 138.4,150.4 C138.2,150.2 138,150.1 137.8,150.1 L137,150.1 L136,152 L136.5,152.6 C136.6,152.7 136.6,152.9 136.5,153.1 C136.1,153.7 135.6,154.3 135,154.6 L135,154.6 Z" id="Shape" sketch:type="MSShapeGroup"></path>
                <g id="Group" transform="translate(36.000000, 51.000000)" sketch:type="MSShapeGroup">
                    <path d="M11.7,0.2 L6.1,27.4" id="Shape"></path>
                    <path d="M19.1,0.2 L13.5,27.4" id="Shape"></path>
                    <path d="M2.3,9.2 L24.7,9.2" id="Shape"></path>
                    <path d="M0.4,18.8 L22.9,18.8" id="Shape"></path>
                </g>
                <path d="M55.4,158.8 L43.4,150 L31.4,158.7 L36,145.2 L24,137.1 L38.9,137.1 L43.5,123.3 L48,137 L62.9,137 L50.9,145.1 L55.4,158.8 L55.4,158.8 Z" id="Shape" sketch:type="MSShapeGroup"></path>
            </g>
        </g>
    </g>
</svg>